<?xml version="1.0" encoding="UTF-8"?>
<svg version="1.1" xmlns="http://www.w3.org/2000/svg" width="225" height="225">
<path d="M0 0 C74.25 0 148.5 0 225 0 C225 74.25 225 148.5 225 225 C150.75 225 76.5 225 0 225 C0 150.75 0 76.5 0 0 Z " fill="#BE5C88" transform="translate(0,0)"/>
<path d="M0 0 C0.70365692 -0.00335861 1.40731384 -0.00671722 2.1322937 -0.01017761 C4.43359191 -0.0195918 6.7348166 -0.02162598 9.03613281 -0.02270508 C10.65504993 -0.02592464 12.27396677 -0.02928922 13.8928833 -0.03279114 C17.27853061 -0.03875888 20.66415249 -0.04063351 24.04980469 -0.04003906 C28.35759567 -0.03993766 32.66522103 -0.05357789 36.97297287 -0.07081127 C40.31557951 -0.08200925 43.65814711 -0.08395588 47.00077057 -0.08342934 C48.58735982 -0.0845982 50.17395045 -0.08895737 51.76052094 -0.0967617 C69.39631491 -0.17538469 86.10854448 1.40426572 99.48925781 14.14526367 C112.67992082 28.05870273 112.64832397 46.34788278 112.65722656 64.29370117 C112.66044964 65.83867421 112.66381445 67.38364695 112.66731262 68.92861938 C112.67326309 72.15090644 112.67515669 75.37316683 112.67456055 78.59545898 C112.67445899 82.68895696 112.68812269 86.78228125 112.70533276 90.87573814 C112.71654364 94.06225341 112.71847701 97.24872782 112.71795082 100.43526077 C112.71911685 101.94287338 112.72345938 103.45048754 112.73128319 104.95808029 C112.81389574 122.51447428 111.26361341 139.16643098 98.48144531 152.40307617 C83.37886435 165.61043129 64.76197262 165.30352846 45.70800781 165.31323242 C44.20308401 165.31645526 42.6981605 165.31982006 41.1932373 165.32331848 C38.05671462 165.32926632 34.92021932 165.33116274 31.78369141 165.33056641 C27.793127 165.33046468 23.80274008 165.34414723 19.81221771 165.36133862 C16.70985122 165.37252954 13.60752681 165.3744835 10.50514221 165.37395668 C9.03495163 165.37512496 7.56475954 165.37948076 6.09458923 165.38728905 C-9.61112573 165.46294667 -25.1110839 163.83462426 -37.51074219 153.14526367 C-38.17740885 151.81193034 -38.84407552 150.47859701 -39.51074219 149.14526367 C-40.50074219 148.81526367 -41.49074219 148.48526367 -42.51074219 148.14526367 C-53.6184639 134.60772783 -52.67013191 115.16736764 -52.67871094 98.65307617 C-52.68193465 97.17536387 -52.6852995 95.69765187 -52.688797 94.21994019 C-52.69474512 91.13888815 -52.69664131 88.057864 -52.69604492 84.97680664 C-52.69594338 81.0649078 -52.70960726 77.15319076 -52.72681713 73.24133492 C-52.73803409 70.19378874 -52.73996121 67.14628524 -52.7394352 64.09872055 C-52.74060031 62.65809374 -52.74493744 61.21746528 -52.75276756 59.77685928 C-52.81159508 47.84046285 -52.69599606 35.67197824 -47.01074219 24.89526367 C-46.66253418 24.22197021 -46.31432617 23.54867676 -45.95556641 22.85498047 C-39.963519 11.90649931 -30.45290668 5.88394108 -18.88574219 1.89526367 C-12.57498171 0.49287245 -6.45369104 0.01951399 0 0 Z " fill="#DA4D61" transform="translate(82.5107421875,29.854736328125)"/>
<path d="M0 0 C0.70365692 -0.00335861 1.40731384 -0.00671722 2.1322937 -0.01017761 C4.43359191 -0.0195918 6.7348166 -0.02162598 9.03613281 -0.02270508 C10.65504993 -0.02592464 12.27396677 -0.02928922 13.8928833 -0.03279114 C17.27853061 -0.03875888 20.66415249 -0.04063351 24.04980469 -0.04003906 C28.35759567 -0.03993766 32.66522103 -0.05357789 36.97297287 -0.07081127 C40.31557951 -0.08200925 43.65814711 -0.08395588 47.00077057 -0.08342934 C48.58735982 -0.0845982 50.17395045 -0.08895737 51.76052094 -0.0967617 C69.39631491 -0.17538469 86.10854448 1.40426572 99.48925781 14.14526367 C112.67992082 28.05870273 112.64832397 46.34788278 112.65722656 64.29370117 C112.66044964 65.83867421 112.66381445 67.38364695 112.66731262 68.92861938 C112.67326309 72.15090644 112.67515669 75.37316683 112.67456055 78.59545898 C112.67445899 82.68895696 112.68812269 86.78228125 112.70533276 90.87573814 C112.71654364 94.06225341 112.71847701 97.24872782 112.71795082 100.43526077 C112.71911685 101.94287338 112.72345938 103.45048754 112.73128319 104.95808029 C112.81389574 122.51447428 111.26361341 139.16643098 98.48144531 152.40307617 C83.37886435 165.61043129 64.76197262 165.30352846 45.70800781 165.31323242 C44.20308401 165.31645526 42.6981605 165.31982006 41.1932373 165.32331848 C38.05671462 165.32926632 34.92021932 165.33116274 31.78369141 165.33056641 C27.793127 165.33046468 23.80274008 165.34414723 19.81221771 165.36133862 C16.70985122 165.37252954 13.60752681 165.3744835 10.50514221 165.37395668 C9.03495163 165.37512496 7.56475954 165.37948076 6.09458923 165.38728905 C-9.61112573 165.46294667 -25.1110839 163.83462426 -37.51074219 153.14526367 C-38.17740885 151.81193034 -38.84407552 150.47859701 -39.51074219 149.14526367 C-40.50074219 148.81526367 -41.49074219 148.48526367 -42.51074219 148.14526367 C-53.6184639 134.60772783 -52.67013191 115.16736764 -52.67871094 98.65307617 C-52.68193465 97.17536387 -52.6852995 95.69765187 -52.688797 94.21994019 C-52.69474512 91.13888815 -52.69664131 88.057864 -52.69604492 84.97680664 C-52.69594338 81.0649078 -52.70960726 77.15319076 -52.72681713 73.24133492 C-52.73803409 70.19378874 -52.73996121 67.14628524 -52.7394352 64.09872055 C-52.74060031 62.65809374 -52.74493744 61.21746528 -52.75276756 59.77685928 C-52.81159508 47.84046285 -52.69599606 35.67197824 -47.01074219 24.89526367 C-46.66253418 24.22197021 -46.31432617 23.54867676 -45.95556641 22.85498047 C-39.963519 11.90649931 -30.45290668 5.88394108 -18.88574219 1.89526367 C-12.57498171 0.49287245 -6.45369104 0.01951399 0 0 Z M-28.51074219 24.14526367 C-37.98029824 35.53322117 -37.67131846 47.95323345 -37.67871094 62.09057617 C-37.68193227 63.54776033 -37.68529697 65.00494417 -37.688797 66.46212769 C-37.69476222 69.50983427 -37.69663972 72.55751261 -37.69604492 75.60522461 C-37.69594374 79.47115146 -37.70956229 83.33689285 -37.72681713 87.20277596 C-37.73805277 90.21262407 -37.73996058 93.22242907 -37.7394352 96.23229599 C-37.74059928 97.65534984 -37.74493028 99.0784054 -37.75276756 100.50143814 C-37.99285222 123.05345823 -37.99285222 123.05345823 -27.71777344 142.31713867 C-16.46433279 151.6385727 -1.00194679 150.31104017 12.72753906 150.34838867 C13.43915884 150.35121605 14.15077862 150.35404343 14.88396263 150.35695648 C18.64782439 150.37183432 22.41164893 150.38113644 26.17553711 150.38549805 C30.01791578 150.39097643 33.85993906 150.41502413 37.70220661 150.44347 C40.69918254 150.4622809 43.69607578 150.46731159 46.6931057 150.46883392 C48.10779964 150.47181784 49.5224937 150.47969759 50.93712807 150.4930191 C63.17188867 150.60004966 77.53870335 150.43386056 87.11425781 141.77026367 C87.89800781 140.90401367 88.68175781 140.03776367 89.48925781 139.14526367 C90.54113281 138.06245117 90.54113281 138.06245117 91.61425781 136.95776367 C98.85626493 126.094753 97.65070176 111.36319163 97.65722656 98.89916992 C97.66044885 97.43765736 97.66381361 95.9761451 97.66731262 94.51463318 C97.67326458 91.46629082 97.6751565 88.41797665 97.67456055 85.36962891 C97.67445891 81.49225478 97.68813032 77.61506369 97.70533276 73.73773289 C97.71652855 70.72372124 97.71847748 67.70975288 97.71795082 64.69572258 C97.7191188 63.26739812 97.72347285 61.83907209 97.73128319 60.41076851 C97.80317971 45.9118417 97.07068738 32.97277299 86.48925781 22.14526367 C75.91074839 14.26765027 61.46218019 14.68798278 48.82910156 14.74682617 C47.26599493 14.74479746 45.70288922 14.74187947 44.13978577 14.73812866 C40.88826347 14.73374398 37.63699095 14.74001103 34.38549805 14.75415039 C30.25496284 14.77125448 26.12501221 14.76136885 21.99449825 14.743433 C18.77449782 14.73250199 15.55463203 14.7360835 12.33462715 14.74381638 C10.81306447 14.74579202 9.29148884 14.74345392 7.76994133 14.73637772 C-4.98589293 14.69003816 -18.6617611 14.97141436 -28.51074219 24.14526367 Z " fill="#FDFBFC" transform="translate(82.5107421875,29.854736328125)"/>
<path d="M0 0 C8.98639311 7.33007752 14.89126863 16.05378533 16.9921875 27.625 C18.36375349 42.0097165 14.34332935 52.42189954 5.47265625 63.52734375 C-0.87810278 70.58889332 -11.3774389 76.00906366 -20.8671875 76.890625 C-34.43390182 76.81729141 -46.08508514 73.94305078 -56.3828125 64.51171875 C-64.75556481 54.79047028 -68.67019032 43.92877655 -68.35546875 31.2578125 C-67.15832342 18.74831634 -62.09174521 10.01016865 -53.0078125 1.625 C-52.3065625 0.965 -51.6053125 0.305 -50.8828125 -0.375 C-35.22248889 -11.26913816 -15.55113119 -11.3927701 0 0 Z " fill="#FBFAFA" transform="translate(138.0078125,78.375)"/>
<path d="M0 0 C8.3390671 2.94320015 12.74752016 7.43561998 17 15 C20.8936729 24.08523676 20.16291337 34.29164073 20.16796875 43.98046875 C20.17118975 45.44004854 20.17455443 46.89962801 20.17805481 48.35920715 C20.18401945 51.41110989 20.18589755 54.46298443 20.18530273 57.51489258 C20.18520146 61.38988569 20.19882982 65.26469415 20.21607494 69.13964367 C20.22729817 72.15374043 20.22921878 75.16779406 20.22869301 78.18190956 C20.22985856 79.608581 20.23419828 81.03525409 20.24202538 82.46190453 C20.28698155 91.50460824 19.66494656 100.10622361 18 109 C17.34 108.67 16.68 108.34 16 108 C16.33 102.39 16.66 96.78 17 91 C17.66 91 18.32 91 19 91 C18.690625 90.46375 18.38125 89.9275 18.0625 89.375 C16.82172561 86.6015043 16.4090325 83.99957163 16 81 C13.36 80.67 10.72 80.34 8 80 C8 77.36 8 74.72 8 72 C4.535 72.495 4.535 72.495 1 73 C0.67 75.31 0.34 77.62 0 80 C-2.64 80.33 -5.28 80.66 -8 81 C-7.67 79.80375 -7.34 78.6075 -7 77.375 C-4.43398138 65.51181245 -5.19049851 52.99960121 -11.54296875 42.43359375 C-13.24274325 40.13481405 -15.0262523 38.06696371 -17 36 C-17.59683594 35.36320312 -18.19367188 34.72640625 -18.80859375 34.0703125 C-27.6020544 25.5510762 -38.94122604 22.65353374 -50.875 22.78515625 C-61.23421719 23.49735243 -71.14381694 28.19156929 -78 36 C-81.07893529 39.60460717 -84.05206312 43.28778319 -87 47 C-88.00109515 43.68929162 -88.10356134 40.69915231 -88.0625 37.25 C-88.05347656 36.26515625 -88.04445313 35.2803125 -88.03515625 34.265625 C-88.02355469 33.51796875 -88.01195313 32.7703125 -88 32 C-84.04 31.505 -84.04 31.505 -80 31 C-80 30.01 -80 29.02 -80 28 C-80 26.68 -80 25.36 -80 24 C-77.03 24 -74.06 24 -71 24 C-71 24.66 -71 25.32 -71 26 C-70.34 26 -69.68 26 -69 26 C-69 25.34 -69 24.68 -69 24 C-67.35 24 -65.7 24 -64 24 C-64 21.36 -64 18.72 -64 16 C-63.67 16.66 -63.34 17.32 -63 18 C-62.29190186 17.67475342 -61.58380371 17.34950684 -60.85424805 17.0144043 C-57.80586208 15.93100308 -55.55461528 15.75583184 -52.33203125 15.76953125 C-51.27435547 15.77146484 -50.21667969 15.77339844 -49.12695312 15.77539062 C-48.03318359 15.78763672 -46.93941406 15.79988281 -45.8125 15.8125 C-44.70712891 15.81314453 -43.60175781 15.81378906 -42.46289062 15.81445312 C-34.28101809 15.85949096 -34.28101809 15.85949096 -32 17 C-32 19.31 -32 21.62 -32 24 C-27.05 24 -22.1 24 -17 24 C-16.835 22.47375 -16.67 20.9475 -16.5 19.375 C-16.4071875 18.51648438 -16.314375 17.65796875 -16.21875 16.7734375 C-15.98872954 13.85710662 -16 10.92538805 -16 8 C-10.72 8 -5.44 8 0 8 C0 5.36 0 2.72 0 0 Z " fill="#D42F83" transform="translate(160,48)"/>
<path d="M0 0 C6.83678678 4.87522547 10.11079007 10.90847823 12 19 C13.10694599 25.93431686 11.37690525 33.39691347 7.5234375 39.23828125 C3.19235063 44.48898246 -1.88765523 48.59314521 -8.375 50.8125 C-9.674375 50.9053125 -9.674375 50.9053125 -11 51 C-11.71800781 51.061875 -12.43601562 51.12375 -13.17578125 51.1875 C-20.83046861 51.56844867 -27.20467463 49.9705348 -33.30078125 45.19921875 C-40.29099332 38.61794047 -42.8270052 31.82095038 -43.375 22.3125 C-43.27316922 14.70913537 -39.8057054 8.65209984 -34.75 3.125 C-24.66431146 -6.06949624 -11.80758386 -6.31526834 0 0 Z " fill="#E03866" transform="translate(128,89)"/>
<path d="M0 0 C8.33268034 2.940946 12.69342364 7.47112715 17 15 C17 15.33 17 15.66 17 16 C14.03 16.33 11.06 16.66 8 17 C7.896875 17.70125 7.79375 18.4025 7.6875 19.125 C6.75182617 23.03781785 5.70546077 26.89863333 2.19140625 29.16796875 C-0.28410444 30.10786853 -2.11267283 30.20256845 -4.75 30.125 C-5.54921875 30.10695313 -6.3484375 30.08890625 -7.171875 30.0703125 C-7.77515625 30.04710938 -8.3784375 30.02390625 -9 30 C-9 30.66 -9 31.32 -9 32 C-8.34 32.33 -7.68 32.66 -7 33 C-7.99 33.495 -7.99 33.495 -9 34 C-10.04808041 35.97522846 -11.0520411 37.97481509 -12 40 C-12.99 39.13375 -13.98 38.2675 -15 37.375 C-16.32942708 36.24538661 -17.66294754 35.1205773 -19 34 C-19.62519531 33.4740625 -20.25039062 32.948125 -20.89453125 32.40625 C-30.76496307 24.52598672 -41.55609925 22.14448182 -54 23 C-69.31144432 25.8263858 -77.68617687 35.27148198 -87 47 C-88.00109515 43.68929162 -88.10356134 40.69915231 -88.0625 37.25 C-88.05347656 36.26515625 -88.04445313 35.2803125 -88.03515625 34.265625 C-88.02355469 33.51796875 -88.01195313 32.7703125 -88 32 C-84.04 31.505 -84.04 31.505 -80 31 C-80 30.01 -80 29.02 -80 28 C-80 26.68 -80 25.36 -80 24 C-77.03 24 -74.06 24 -71 24 C-71 24.66 -71 25.32 -71 26 C-70.34 26 -69.68 26 -69 26 C-69 25.34 -69 24.68 -69 24 C-67.35 24 -65.7 24 -64 24 C-64 21.36 -64 18.72 -64 16 C-63.67 16.66 -63.34 17.32 -63 18 C-62.29190186 17.67475342 -61.58380371 17.34950684 -60.85424805 17.0144043 C-57.80586208 15.93100308 -55.55461528 15.75583184 -52.33203125 15.76953125 C-51.27435547 15.77146484 -50.21667969 15.77339844 -49.12695312 15.77539062 C-48.03318359 15.78763672 -46.93941406 15.79988281 -45.8125 15.8125 C-44.70712891 15.81314453 -43.60175781 15.81378906 -42.46289062 15.81445312 C-34.28101809 15.85949096 -34.28101809 15.85949096 -32 17 C-32 19.31 -32 21.62 -32 24 C-27.05 24 -22.1 24 -17 24 C-16.835 22.47375 -16.67 20.9475 -16.5 19.375 C-16.4071875 18.51648438 -16.314375 17.65796875 -16.21875 16.7734375 C-15.98872954 13.85710662 -16 10.92538805 -16 8 C-10.72 8 -5.44 8 0 8 C0 5.36 0 2.72 0 0 Z " fill="#C8348B" transform="translate(160,48)"/>
<path d="M0 0 C0.33 0 0.66 0 1 0 C1.33 6.27 1.66 12.54 2 19 C2.33 16.36 2.66 13.72 3 11 C3.33 11 3.66 11 4 11 C4 13.64 4 16.28 4 19 C4.66 19.33 5.32 19.66 6 20 C5.67 22.31 5.34 24.62 5 27 C4.34 27 3.68 27 3 27 C3 32.28 3 37.56 3 43 C3.66 43 4.32 43 5 43 C5.02684679 45.64590014 5.04676357 48.29153096 5.0625 50.9375 C5.07087891 51.69224609 5.07925781 52.44699219 5.08789062 53.22460938 C5.09652441 55.14994313 5.05224333 57.07535581 5 59 C4.67 59.33 4.34 59.66 4 60 C3.92733028 63.04304432 4.00383691 66.07403966 4.0625 69.1171875 C4 72 4 72 3 75 C3.99 75.33 4.98 75.66 6 76 C5 79 5 79 3 80 C3.99 81.485 3.99 81.485 5 83 C4.625 85.6875 4.625 85.6875 4 88 C1.525 88.495 1.525 88.495 -1 89 C-3.61281488 94.87883349 -3.18328202 100.70731728 -3 107 C-3.95003906 106.95230469 -4.90007812 106.90460938 -5.87890625 106.85546875 C-7.42384766 106.92701172 -7.42384766 106.92701172 -9 107 C-11.06196218 109.2140989 -11.06196218 109.2140989 -12 112 C-11.67 112.99 -11.34 113.98 -11 115 C-12.04800781 114.96519531 -13.09601563 114.93039063 -14.17578125 114.89453125 C-15.55467147 114.86639063 -16.93357902 114.83909076 -18.3125 114.8125 C-19.00279297 114.78736328 -19.69308594 114.76222656 -20.40429688 114.73632812 C-24.39871073 114.60633051 -24.39871073 114.60633051 -27.79296875 116.44921875 C-28.19128906 116.96097656 -28.58960938 117.47273438 -29 118 C-30.485 118.495 -30.485 118.495 -32 119 C-32 119.99 -32 120.98 -32 122 C-35.76300374 123.25433458 -39.27210909 123.10695422 -43.1875 123.0625 C-43.93708984 123.05798828 -44.68667969 123.05347656 -45.45898438 123.04882812 C-47.30602383 123.03706354 -49.15302213 123.01912865 -51 123 C-51 122.34 -51 121.68 -51 121 C-53.31 121 -55.62 121 -58 121 C-58 121.66 -58 122.32 -58 123 C-66.92738241 123.04634244 -75.8547234 123.08187889 -84.78219986 123.10362434 C-88.92759704 123.11406111 -93.07291191 123.12821835 -97.21826172 123.15087891 C-101.21882689 123.17261111 -105.21931291 123.18456943 -109.21993256 123.18975449 C-110.74615475 123.19344956 -112.27237261 123.20066511 -113.7985611 123.21146011 C-115.93644064 123.22598018 -118.07399314 123.22797775 -120.21191406 123.22705078 C-121.4288092 123.231492 -122.64570435 123.23593323 -123.8994751 123.24050903 C-126.85589163 123.01117855 -128.51569885 122.55421583 -131 121 C-131 119.35 -131 117.7 -131 116 C-130.38698532 116.0702388 -129.77397064 116.1404776 -129.14237976 116.21284485 C-120.8920517 117.06866764 -112.67909427 117.16370453 -104.39453125 117.16796875 C-102.90158559 117.17119323 -101.40864023 117.17455813 -99.91569519 117.17805481 C-96.80015329 117.18400539 -93.68463896 117.18589898 -90.5690918 117.18530273 C-86.62385877 117.18520146 -82.67880708 117.19883677 -78.73361683 117.21607494 C-75.65249356 117.22732618 -72.5714123 117.22921796 -69.49027061 117.22869301 C-68.03816797 117.22985413 -66.58606355 117.23416737 -65.1339817 117.24202538 C-47.07994838 117.33057472 -28.34132979 116.68281116 -14.0234375 104.2890625 C-0.99269355 90.68427697 -0.7193843 72.69726369 -0.5859375 54.98046875 C-0.56717807 53.38478142 -0.54760132 51.78910352 -0.5272522 50.19343567 C-0.47642831 46.0393129 -0.4365401 41.88515814 -0.39910889 37.730896 C-0.35875311 33.47351496 -0.30780665 29.21626121 -0.2578125 24.95898438 C-0.16164415 16.63941063 -0.07705492 8.31977265 0 0 Z " fill="#D71E75" transform="translate(195,77)"/>
<path d="M0 0 C0.33 0 0.66 0 1 0 C1.14695313 1.01578125 1.29390625 2.0315625 1.4453125 3.078125 C3.59968996 16.76927726 7.97782012 28.86077585 19 38 C27.4967709 43.63906064 35.74809061 46.97221705 46 47 C48.73140025 47.1567538 51.45890929 47.36337712 54.1875 47.5625 C56.45824793 47.70965714 58.72905229 47.85595878 61 48 C61 48.33 61 48.66 61 49 C40.87 49 20.74 49 0 49 C0 32.83 0 16.66 0 0 Z " fill="#FDFCF8" transform="translate(0,176)"/>
<path d="M0 0 C15.84 0 31.68 0 48 0 C48 0.33 48 0.66 48 1 C47.27296875 1.08636719 46.5459375 1.17273438 45.796875 1.26171875 C32.35501518 3.14013249 20.92201119 7.88224791 11.96484375 18.38671875 C3.23650229 30.19129096 2.02170731 41.73347716 1 56 C0.67 56 0.34 56 0 56 C0 37.52 0 19.04 0 0 Z " fill="#F9F9FB" transform="translate(0,0)"/>
<path d="M0 0 C0.33 0 0.66 0 1 0 C1 16.83 1 33.66 1 51 C-14.84 51 -30.68 51 -47 51 C-47 50.67 -47 50.34 -47 50 C-46.05640625 49.85304687 -45.1128125 49.70609375 -44.140625 49.5546875 C-30.08393433 47.09900058 -17.61205438 42.21563135 -8.99609375 30.20703125 C-3.05371811 20.61735198 -0.70249143 11.16719141 0 0 Z " fill="#FCFBFC" transform="translate(224,174)"/>
<path d="M0 0 C15.51 0 31.02 0 47 0 C47 15.18 47 30.36 47 46 C45.26249667 42.52499334 44.51664554 40.100111 43.75 36.375 C40.89790109 24.56327726 33.75235491 15.33337058 23.7421875 8.60546875 C16.38576531 4.29850362 8.34522785 2.37578594 0 1 C0 0.67 0 0.34 0 0 Z " fill="#FCFBFC" transform="translate(178,0)"/>
<path d="M0 0 C13.53 0 27.06 0 41 0 C41 0.33 41 0.66 41 1 C42.27528564 0.96970703 43.55057129 0.93941406 44.86450195 0.90820312 C49.64116459 0.7950834 54.41786589 0.68367358 59.19458008 0.57275391 C61.25351012 0.52471059 63.3124297 0.47621685 65.37133789 0.42724609 C68.34779196 0.35653276 71.32428111 0.28749329 74.30078125 0.21875 C75.2064534 0.19687622 76.11212555 0.17500244 77.04524231 0.15246582 C83.36443934 0.00871212 89.67927432 -0.02394412 96 0 C96 2.64 96 5.28 96 8 C95.40171387 7.92935333 94.80342773 7.85870667 94.18701172 7.78591919 C85.49758726 6.86948793 76.84925302 6.8542229 68.125 6.8671875 C66.50797511 6.86651204 64.89095033 6.86554001 63.27392578 6.86428833 C59.90200829 6.86282272 56.53011748 6.86492908 53.15820312 6.86962891 C48.86501948 6.87532548 44.57189839 6.87204035 40.27871704 6.86605644 C36.94473816 6.86241997 33.61077378 6.86360351 30.27679443 6.86618423 C28.69496656 6.86684499 27.1131373 6.86605534 25.53131104 6.86370468 C16.97413605 6.85377488 8.51198992 6.99488942 0 8 C0 5.36 0 2.72 0 0 Z " fill="#992CAC" transform="translate(64,24)"/>
<path d="M0 0 C0 2.31 0 4.62 0 7 C-3.76300374 8.25433458 -7.27210909 8.10695422 -11.1875 8.0625 C-11.93708984 8.05798828 -12.68667969 8.05347656 -13.45898438 8.04882812 C-15.30602383 8.03706354 -17.15302213 8.01912865 -19 8 C-19 7.34 -19 6.68 -19 6 C-21.31 6 -23.62 6 -26 6 C-26 6.66 -26 7.32 -26 8 C-34.92738241 8.04634244 -43.8547234 8.08187889 -52.78219986 8.10362434 C-56.92759704 8.11406111 -61.07291191 8.12821835 -65.21826172 8.15087891 C-69.21882689 8.17261111 -73.21931291 8.18456943 -77.21993256 8.18975449 C-78.74615475 8.19344956 -80.27237261 8.20066511 -81.7985611 8.21146011 C-83.93644064 8.22598018 -86.07399314 8.22797775 -88.21191406 8.22705078 C-89.4288092 8.231492 -90.64570435 8.23593323 -91.8994751 8.24050903 C-94.85589163 8.01117855 -96.51569885 7.55421583 -99 6 C-99 4.35 -99 2.7 -99 1 C-98.38698532 1.0702388 -97.77397064 1.1404776 -97.14237976 1.21284485 C-88.8920517 2.06866764 -80.67909427 2.16370453 -72.39453125 2.16796875 C-70.90158559 2.17119323 -69.40864023 2.17455813 -67.91569519 2.17805481 C-64.80015329 2.18400539 -61.68463896 2.18589898 -58.5690918 2.18530273 C-54.62385877 2.18520146 -50.67880708 2.19883677 -46.73361683 2.21607494 C-43.65249356 2.22732618 -40.5714123 2.22921796 -37.49027061 2.22869301 C-36.03816797 2.22985413 -34.58606355 2.23416737 -33.1339817 2.24202538 C-24.01836868 2.28673459 -15.24346996 1.69995837 -6.22099304 0.42939758 C-3 0 -3 0 0 0 Z " fill="#F5743D" transform="translate(163,192)"/>
<path d="M0 0 C0.77472656 0.00451172 1.54945312 0.00902344 2.34765625 0.01367188 C4.23180524 0.02530242 6.11591365 0.04323094 8 0.0625 C8 0.3925 8 0.7225 8 1.0625 C5.36 1.7225 2.72 2.3825 0 3.0625 C-0.33 4.3825 -0.66 5.7025 -1 7.0625 C-8.55644734 8.05350949 -15.96703683 8.13507475 -23.57348633 8.02539062 C-24.37423584 8.01701172 -25.17498535 8.00863281 -26 8 C-27.0828125 7.98259766 -27.0828125 7.98259766 -28.1875 7.96484375 C-30.10155479 7.94725883 -30.10155479 7.94725883 -32 9.0625 C-32.40729228 11.38406597 -32.74438677 13.7193787 -33 16.0625 C-35.64 16.0625 -38.28 16.0625 -41 16.0625 C-41 18.7025 -41 21.3425 -41 24.0625 C-43.31 24.3925 -45.62 24.7225 -48 25.0625 C-48.75684154 31.92813395 -49.03977505 38.53061481 -48.64453125 45.43359375 C-49.10404247 48.83195695 -50.37718657 49.94926175 -53 52.0625 C-53.33 52.0625 -53.66 52.0625 -54 52.0625 C-54.66 56.0225 -55.32 59.9825 -56 64.0625 C-56.33 64.0625 -56.66 64.0625 -57 64.0625 C-56.53621538 44.86540381 -56.09437748 27.37525057 -41.3125 13.1875 C-29.21033567 3.0224199 -15.4271742 -0.17378966 0 0 Z " fill="#4B64D1" transform="translate(57,-0.0625)"/>
<path d="M0 0 C15.93325965 -0.67087409 31.78204019 -0.02240909 45 10 C46.05574219 10.76957031 46.05574219 10.76957031 47.1328125 11.5546875 C55.53468908 18.23146394 62.05435704 28.42549351 63.39453125 39.16015625 C63.65301083 42.10682344 63.85720839 45.0456909 64 48 C61.36 48 58.72 48 56 48 C56.33 46.68 56.66 45.36 57 44 C57 44.66 57 45.32 57 46 C58.65 46 60.3 46 62 46 C61.505 43.03 61.505 43.03 61 40 C60.360625 40.185625 59.72125 40.37125 59.0625 40.5625 C58.381875 40.706875 57.70125 40.85125 57 41 C56 40 56 40 55.90234375 36.40234375 C55.9090178 34.91403133 55.92097817 33.42573568 55.9375 31.9375 C55.94201172 31.17888672 55.94652344 30.42027344 55.95117188 29.63867188 C55.9629932 27.75908129 55.98092922 25.87953101 56 24 C53.36 24 50.72 24 48 24 C48 21.36 48 18.72 48 16 C45.36 16 42.72 16 40 16 C40 13.36 40 10.72 40 8 C36.37 8 32.74 8 29 8 C28.67 7.34 28.34 6.68 28 6 C27.67 6.66 27.34 7.32 27 8 C20.56688704 8.09507063 14.34241995 8.15316726 8 7 C8 5.02 8 3.04 8 1 C5.36 1 2.72 1 0 1 C0 0.67 0 0.34 0 0 Z " fill="#9B39B7" transform="translate(160,0)"/>
<path d="M0 0 C0.92837264 11.8367512 -3.76053099 22.80702348 -11 32 C-18.5777054 40.39376598 -28.82530376 46.13755063 -40 48 C-42.69221651 48.12996907 -45.30171446 48.09636734 -48 48 C-47.34 46.68 -46.68 45.36 -46 44 C-45.34 44 -44.68 44 -44 44 C-43.67 44.33 -43.34 44.66 -43 45 C-42.01 44.34 -41.02 43.68 -40 43 C-40.66 42.34 -41.32 41.68 -42 41 C-37.92234697 40.29425236 -34.96978663 39.97553893 -31 41 C-28.99053778 40.72949547 -26.98645776 40.40632091 -25 40 C-24.67 37.36 -24.34 34.72 -24 32 C-21.69 32 -19.38 32 -17 32 C-16.7834375 30.8553125 -16.7834375 30.8553125 -16.5625 29.6875 C-16 27 -16 27 -15 24 C-13.02 24 -11.04 24 -9 24 C-7.93276039 20.53777385 -7.89826514 17.35960734 -7.9375 13.75 C-7.94652344 12.67234375 -7.95554688 11.5946875 -7.96484375 10.484375 C-7.97644531 9.66453125 -7.98804688 8.8446875 -8 8 C-7.01 8 -6.02 8 -5 8 C-3.86895919 5.97983988 -3.86895919 5.97983988 -3.5625 3.4375 C-3.2840625 2.2309375 -3.2840625 2.2309375 -3 1 C-1 0 -1 0 0 0 Z " fill="#D72F7A" transform="translate(224,176)"/>
<path d="M0 0 C3.37882179 2.3933321 4.67073608 4.03278722 6 7.9375 C6 11.77523843 5.10300954 13.8092269 3 17 C0.074841 19.38346289 -3.30980484 19.49226358 -7.02734375 19.3671875 C-9 19 -9 19 -12 17.0625 C-14.33179981 13.49193154 -14.74577495 11.3549794 -14.47265625 7.16015625 C-14 5 -14 5 -12.0625 1.9375 C-7.95653383 -0.66015206 -4.73592006 -1.0638661 0 0 Z " fill="#FBF8FB" transform="translate(161,59)"/>
<path d="M0 0 C0.66 0.66 1.32 1.32 2 2 C4.65537372 2.56520003 7.29144713 2.73788198 10 3 C10 5.31 10 7.62 10 10 C13.98399958 10.69096471 13.98399958 10.69096471 18 11 C18 13.64 18 16.28 18 19 C24.44070471 19.10655578 30.62641289 18.96205088 37 18 C36.67 16.35 36.34 14.7 36 13 C39.75 11 39.75 11 42 11 C42.33 10.34 42.66 9.68 43 9 C44.32 9 45.64 9 47 9 C47.4375 11.125 47.4375 11.125 47 14 C42.32440769 19.88124819 35.81606934 22.37683448 28.5546875 23.31640625 C21.08556172 23.67932615 14.61739557 21.83127226 8.69921875 17.19921875 C4.45246572 13.20090465 1.71752007 9.58194024 0 4 C0 2.68 0 1.36 0 0 Z " fill="#ED5549" transform="translate(86,117)"/>
<path d="M0 0 C4.7699871 3.72121144 7.98981864 7.24948118 10 13 C6.88228073 14.60339848 5.60988311 15.18974141 2.1875 14.125 C1.465625 13.75375 0.74375 13.3825 0 13 C-0.495 9.535 -0.495 9.535 -1 6 C-2.32 6 -3.64 6 -5 6 C-5.495 5.01 -5.495 5.01 -6 4 C-6.66 4.33 -7.32 4.66 -8 5 C-8 3.02 -8 1.04 -8 -1 C-11.70346975 -1.7575279 -14.40587329 -2.23548106 -18 -1 C-19.0725 -0.649375 -20.145 -0.29875 -21.25 0.0625 C-22.1575 0.371875 -23.065 0.68125 -24 1 C-24 2.98 -24 4.96 -24 7 C-25.98 7 -27.96 7 -30 7 C-30.66 9.31 -31.32 11.62 -32 14 C-37.75 15.125 -37.75 15.125 -40 14 C-40 9.41834785 -38.5386984 7.09457331 -35.5 3.875 C-25.1579145 -5.71393185 -12.41066591 -6.73025538 0 0 Z " fill="#D3327B" transform="translate(128,89)"/>
<path d="M0 0 C2.31 0 4.62 0 7 0 C7.33 1.65 7.66 3.3 8 5 C8.99 4.34 9.98 3.68 11 3 C11.99 3.33 12.98 3.66 14 4 C14 7.96 14 11.92 14 16 C14.99 16 15.98 16 17 16 C17.12375 16.5775 17.2475 17.155 17.375 17.75 C18.00648824 20.02335767 18.88858191 21.9253529 20 24 C20.66 23.67 21.32 23.34 22 23 C22 31.25 22 39.5 22 48 C21.34 48 20.68 48 20 48 C19.67 53.28 19.34 58.56 19 64 C18.67 64 18.34 64 18 64 C17.505 51.13 17.505 51.13 17 38 C16.67 38 16.34 38 16 38 C15.98582031 37.35675781 15.97164062 36.71351562 15.95703125 36.05078125 C15.21125004 21.92125074 8.92678912 10.64347934 0 0 Z " fill="#C82D96" transform="translate(178,40)"/>
<path d="M0 0 C1.134375 0.020625 2.26875 0.04125 3.4375 0.0625 C3.33900757 0.96597168 3.33900757 0.96597168 3.23852539 1.88769531 C2.18091082 12.83871639 2.09087563 23.81958445 1.875 34.8125 C1.83172019 36.87761132 1.7881032 38.9427156 1.74414062 41.0078125 C1.63803814 46.02596895 1.53650353 51.04419868 1.4375 56.0625 C1.1075 56.0625 0.7775 56.0625 0.4375 56.0625 C0.4375 53.4225 0.4375 50.7825 0.4375 48.0625 C-0.5525 48.0625 -1.5425 48.0625 -2.5625 48.0625 C-3.69603496 35.3840923 -4.75897363 22.73694509 -4.75 10 C-4.75064453 9.10901611 -4.75128906 8.21803223 -4.75195312 7.30004883 C-4.68892194 0.08226179 -4.68892194 0.08226179 0 0 Z " fill="#B32C86" transform="translate(28.5625,63.9375)"/>
<path d="M0 0 C0.99 0 1.98 0 3 0 C3.92885283 6.50196982 4.27112606 12.93929452 4.5 19.5 C4.86131381 29.01240733 5.34361467 38.50336125 6 48 C3.36 48 0.72 48 -2 48 C-1.814375 46.845 -1.62875 45.69 -1.4375 44.5 C-1.00357612 41.02860893 -1.19685731 38.03024069 -1.7421875 34.5625 C-2.36059787 28.41587569 -2.06739994 22.17083869 -2 16 C-1.34 16 -0.68 16 0 16 C0 10.72 0 5.44 0 0 Z " fill="#EC6A3B" transform="translate(26,112)"/>
<path d="M0 0 C1.0010955 0.10277504 1.0010955 0.10277504 2.02241516 0.20762634 C8.6617519 0.85511634 15.24991484 1.19626146 21.91796875 1.31640625 C22.90122635 1.33718735 23.88448395 1.35796844 24.89753723 1.37937927 C27.99413041 1.44401141 31.09079772 1.50335195 34.1875 1.5625 C36.30534577 1.60576764 38.42318443 1.64938434 40.54101562 1.69335938 C45.69393726 1.79960226 50.84693234 1.90110435 56 2 C56 2.66 56 3.32 56 4 C53.36 4 50.72 4 48 4 C48 4.66 48 5.32 48 6 C43.36238454 7.16711673 38.87003444 7.16148221 34.12109375 7.16796875 C33.27200943 7.17129715 32.42292511 7.17462555 31.54811096 7.17805481 C29.75872335 7.18310322 27.96932637 7.18546378 26.17993164 7.18530273 C23.44336535 7.1874953 20.70719851 7.20568955 17.97070312 7.22460938 C16.22916804 7.22754252 14.48763105 7.22952784 12.74609375 7.23046875 C11.92934677 7.23765427 11.11259979 7.24483978 10.27110291 7.25224304 C3.27968297 7.22410216 3.27968297 7.22410216 0 5 C0 3.35 0 1.7 0 0 Z " fill="#FCB556" transform="translate(64,193)"/>
<path d="M0 0 C13.53 0 27.06 0 41 0 C41 0.33 41 0.66 41 1 C45.95 1.33 50.9 1.66 56 2 C56 2.33 56 2.66 56 3 C48.08 3.33 40.16 3.66 32 4 C32 4.33 32 4.66 32 5 C21.44 5.99 10.88 6.98 0 8 C0 5.36 0 2.72 0 0 Z " fill="#7B41B4" transform="translate(64,24)"/>
<path d="M0 0 C5.75 -0.125 5.75 -0.125 8 1 C7.57647567 5.7999424 5.33883383 8.71560368 2 12 C-6.79230671 19.15652872 -18.38543337 20.17516476 -29.33984375 20.09765625 C-30.10680069 20.0962413 -30.87375763 20.09482635 -31.66395569 20.09336853 C-34.0885119 20.08781766 -36.51297219 20.07527463 -38.9375 20.0625 C-40.59179553 20.05747864 -42.24609253 20.05291685 -43.90039062 20.04882812 C-47.93363012 20.03786438 -51.96679886 20.02063424 -56 20 C-56 19.67 -56 19.34 -56 19 C-50.72 19 -45.44 19 -40 19 C-40 18.34 -40 17.68 -40 17 C-38.39592672 16.97291433 -36.7917215 16.95356517 -35.1875 16.9375 C-34.29417969 16.92589844 -33.40085938 16.91429687 -32.48046875 16.90234375 C-30 17 -30 17 -27 18 C-27 17.34 -27 16.68 -27 16 C-20.73 16 -14.46 16 -8 16 C-8 13.36 -8 10.72 -8 8 C-5.03 8 -2.06 8 1 8 C0.505 7.01 0.505 7.01 0 6 C-0.039992 4.00039988 -0.04346799 1.99952758 0 0 Z " fill="#E63857" transform="translate(168,160)"/>
<path d="M0 0 C7.92 0.33 15.84 0.66 24 1 C24 1.33 24 1.66 24 2 C22.65808594 2.05607422 22.65808594 2.05607422 21.2890625 2.11328125 C8.87027859 2.78850298 -2.19849925 4.97139707 -11.75 13.4375 C-15.63042565 17.85687366 -19.34295929 22.39483763 -23 27 C-24.00109515 23.68929162 -24.10356134 20.69915231 -24.0625 17.25 C-24.05347656 16.26515625 -24.04445313 15.2803125 -24.03515625 14.265625 C-24.02355469 13.51796875 -24.01195313 12.7703125 -24 12 C-21.36 11.67 -18.72 11.34 -16 11 C-16 10.01 -16 9.02 -16 8 C-16 6.68 -16 5.36 -16 4 C-13.03 4 -10.06 4 -7 4 C-7 4.66 -7 5.32 -7 6 C-6.34 6 -5.68 6 -5 6 C-5 5.34 -5 4.68 -5 4 C-3.35 4 -1.7 4 0 4 C0 2.68 0 1.36 0 0 Z " fill="#C42F84" transform="translate(96,68)"/>
<path d="M0 0 C0.68707031 -0.00335861 1.37414062 -0.00671722 2.08203125 -0.01017761 C4.33888592 -0.01962553 6.59566588 -0.02162778 8.85253906 -0.02270508 C10.43426544 -0.02592253 12.01599152 -0.02928697 13.59771729 -0.03279114 C16.90955291 -0.03876745 20.22136249 -0.04063264 23.53320312 -0.04003906 C27.7538119 -0.03993766 31.9742516 -0.05357351 36.1948204 -0.07081127 C39.46186065 -0.08199258 42.72886086 -0.08395638 45.99591827 -0.08342934 C47.55066763 -0.08460086 49.10541832 -0.08897554 50.66014862 -0.0967617 C58.91675551 -0.13423298 66.82590527 -0.00383426 74.86816406 2.14526367 C74.86816406 2.47526367 74.86816406 2.80526367 74.86816406 3.14526367 C65.43650375 3.16844607 56.00485326 3.18620885 46.57317066 3.19707584 C42.19354559 3.20229175 37.81394002 3.20936597 33.43432617 3.22070312 C29.20682776 3.23157788 24.9793481 3.23755025 20.75183678 3.24014091 C19.13992709 3.24198689 17.52801841 3.24559159 15.91611671 3.25099373 C13.6563763 3.25826503 11.39671314 3.25925204 9.13696289 3.25878906 C7.20836174 3.26211998 7.20836174 3.26211998 5.24079895 3.26551819 C2.29865708 3.16061331 -0.26753963 2.75830492 -3.13183594 2.14526367 C-5.57227582 2.22849099 -8.01106963 2.37809641 -10.44433594 2.58276367 C-11.69859375 2.68459961 -12.95285156 2.78643555 -14.24511719 2.89135742 C-15.67404297 3.01704102 -15.67404297 3.01704102 -17.13183594 3.14526367 C-11.75400748 0.04267033 -6.08157443 0.01876172 0 0 Z " fill="#AF299E" transform="translate(83.1318359375,44.854736328125)"/>
<path d="M0 0 C2.64 0 5.28 0 8 0 C8 2.64 8 5.28 8 8 C10.64 8 13.28 8 16 8 C16 10.64 16 13.28 16 16 C18.64 16 21.28 16 24 16 C24 16.66 24 17.32 24 18 C26.64 17.34 29.28 16.68 32 16 C32 17.32 32 18.64 32 20 C32.99 20.66 33.98 21.32 35 22 C35 22.66 35 23.32 35 24 C23.00041877 22.82168441 12.70476949 17.76563514 4.5234375 8.859375 C0 3.33846154 0 3.33846154 0 0 Z " fill="#F9BE60" transform="translate(8,200)"/>
<path d="M0 0 C0.72703125 0.144375 1.4540625 0.28875 2.203125 0.4375 C12.28954557 2.29960841 21.86330854 2.55949099 32 1 C32 2.98 32 4.96 32 7 C29.37846304 8.31076848 27.82544191 7.86566747 24.9375 7.5 C23.29627854 7.29278696 21.65014946 7.11641266 20 7 C19.67 7.33 19.34 7.66 19 8 C17.66956375 8.0983721 16.33406656 8.13078592 15 8.1328125 C14.195625 8.13410156 13.39125 8.13539063 12.5625 8.13671875 C11.716875 8.13285156 10.87125 8.12898437 10 8.125 C9.154375 8.12886719 8.30875 8.13273438 7.4375 8.13671875 C6.633125 8.13542969 5.82875 8.13414062 5 8.1328125 C4.2575 8.13168457 3.515 8.13055664 2.75 8.12939453 C1 8 1 8 0 7 C-0.04092937 4.66702567 -0.04241723 2.33294775 0 0 Z " fill="#F36A37" transform="translate(96,152)"/>
<path d="M0 0 C9.31285282 -0.39212012 18.14309549 -0.37744792 27.25 1.8125 C27.93956787 1.97782227 28.62913574 2.14314453 29.33959961 2.31347656 C33.52089578 3.40384772 37.20619314 4.94403945 41 7 C37.0186217 8.3271261 33.14954773 8.06915913 29 8 C28.67 7.34 28.34 6.68 28 6 C27.67 6.66 27.34 7.32 27 8 C20.56688704 8.09507063 14.34241995 8.15316726 8 7 C8 5.02 8 3.04 8 1 C5.36 1 2.72 1 0 1 C0 0.67 0 0.34 0 0 Z " fill="#8245C5" transform="translate(160,0)"/>
<path d="M0 0 C8.33268034 2.940946 12.69342364 7.47112715 17 15 C17 15.33 17 15.66 17 16 C16.37351563 16.06058594 15.74703125 16.12117188 15.1015625 16.18359375 C13.87566406 16.30927734 13.87566406 16.30927734 12.625 16.4375 C11.81289062 16.51871094 11.00078125 16.59992188 10.1640625 16.68359375 C7.95727195 16.89090114 7.95727195 16.89090114 6 18 C5.731875 17.38125 5.46375 16.7625 5.1875 16.125 C4.04443152 13.7004767 4.04443152 13.7004767 1 12 C-1.32387947 11.60612212 -3.65793749 11.26513915 -6 11 C-5.01 10.67 -4.02 10.34 -3 10 C-3 9.34 -3 8.68 -3 8 C-2.01 8 -1.02 8 0 8 C0 5.36 0 2.72 0 0 Z " fill="#C1329A" transform="translate(160,48)"/>
<path d="M0 0 C3.74858931 1.24952977 3.85964682 2.20785437 5.625 5.625 C9.79798727 12.89910997 15.86757101 16.85858962 23 21 C23 21.33 23 21.66 23 22 C18.05 22 13.1 22 8 22 C8 19.36 8 16.72 8 14 C5.36 14 2.72 14 0 14 C0 9.38 0 4.76 0 0 Z " fill="#F16735" transform="translate(72,130)"/>
<path d="M0 0 C1.98 0 3.96 0 6 0 C5.773125 0.9075 5.54625 1.815 5.3125 2.75 C4.62772848 5.96548359 4.62772848 5.96548359 6.4621582 7.87792969 C8.38034206 10.5248346 8.34941558 11.96683995 8.29296875 15.203125 C8.28330078 16.1828125 8.27363281 17.1625 8.26367188 18.171875 C8.23853516 19.18765625 8.21339844 20.2034375 8.1875 21.25 C8.17396484 22.28125 8.16042969 23.3125 8.14648438 24.375 C8.11117607 26.91719792 8.06186036 29.45833223 8 32 C0.47635164 24.95059596 0.43877002 12.7648599 0.078125 3.04296875 C0.05234375 2.03878906 0.0265625 1.03460938 0 0 Z " fill="#F28838" transform="translate(0,168)"/>
<path d="M0 0 C0 0.66 0 1.32 0 2 C-0.66 2 -1.32 2 -2 2 C-2 2.66 -2 3.32 -2 4 C-0.02 3.34 1.96 2.68 4 2 C4 3.32 4 4.64 4 6 C3.071875 5.896875 2.14375 5.79375 1.1875 5.6875 C-2.15759907 5.63989387 -2.15759907 5.63989387 -3.9375 8.3125 C-5.34608472 11.03319792 -5.34608472 11.03319792 -4 14 C-5.04800781 13.96519531 -6.09601563 13.93039063 -7.17578125 13.89453125 C-8.55467147 13.86639063 -9.93357902 13.83909076 -11.3125 13.8125 C-12.00279297 13.78736328 -12.69308594 13.76222656 -13.40429688 13.73632812 C-17.42182431 13.59759326 -17.42182431 13.59759326 -20.79296875 15.51171875 C-21.19128906 16.00285156 -21.58960938 16.49398437 -22 17 C-22.99 17 -23.98 17 -25 17 C-24.9375 15.1875 -24.9375 15.1875 -24 13 C-22.38731334 12.26085195 -20.76525336 11.53642549 -19.10546875 10.91015625 C-14.10797225 8.74982845 -9.47508596 5.51495315 -5.6875 1.625 C-4 0 -4 0 0 0 Z " fill="#E82F64" transform="translate(188,178)"/>
<path d="M0 0 C0.33 0 0.66 0 1 0 C1 2.64 1 5.28 1 8 C1.66 8.33 2.32 8.66 3 9 C2.67 11.31 2.34 13.62 2 16 C1.34 16 0.68 16 0 16 C0 21.28 0 26.56 0 32 C0.66 32 1.32 32 2 32 C2.02684679 34.64590014 2.04676357 37.29153096 2.0625 39.9375 C2.07087891 40.69224609 2.07925781 41.44699219 2.08789062 42.22460938 C2.09652441 44.14994313 2.05224333 46.07535581 2 48 C1.505 48.495 1.505 48.495 1 49 C0.96820212 52.04351168 1.06852567 55.07505225 1.16015625 58.1171875 C1 61 1 61 -1 64 C-2.9186905 43.16850311 -3.80215877 20.64029044 0 0 Z " fill="#D62E83" transform="translate(198,88)"/>
<path d="M0 0 C0.33 0 0.66 0 1 0 C1.91297308 4.97063121 1.91297308 9.02936879 1 14 C-1.64 14 -4.28 14 -7 14 C-7 16.64 -7 19.28 -7 22 C-11.62 22 -16.24 22 -21 22 C-18.7324753 19.7324753 -16.82763963 18.11169246 -14.25 16.3125 C-8.25057689 11.87093814 -3.65708836 6.50149042 0 0 Z " fill="#EB465D" transform="translate(151,130)"/>
<path d="M0 0 C7.92 0 15.84 0 24 0 C24 2.64 24 5.28 24 8 C22.18706911 7.85962479 20.3746557 7.71255111 18.5625 7.5625 C17.04849609 7.44068359 17.04849609 7.44068359 15.50390625 7.31640625 C13 7 13 7 12 6 C9.9291528 5.8415735 7.85321971 5.74875578 5.77734375 5.68359375 C3.88725586 5.62075195 3.88725586 5.62075195 1.95898438 5.55664062 C0.61849264 5.51682404 -0.7220022 5.47711186 -2.0625 5.4375 C-3.40691523 5.39431958 -4.7513166 5.35070544 -6.09570312 5.30664062 C-9.3970234 5.20014642 -12.69842236 5.0981354 -16 5 C-16 4.67 -16 4.34 -16 4 C-8.08 3.67 -0.16 3.34 8 3 C8 2.34 8 1.68 8 1 C5.36 1 2.72 1 0 1 C0 0.67 0 0.34 0 0 Z " fill="#A334AE" transform="translate(136,24)"/>
<path d="M0 0 C0.33 0 0.66 0 1 0 C0.979375 0.9075 0.95875 1.815 0.9375 2.75 C0.98926877 5.4419763 1.33569365 7.43767551 2 10 C1.67 10.33 1.34 10.66 1 11 C0.70899284 13.05468694 0.49237393 15.12011784 0.3125 17.1875 C0.20550781 18.31542969 0.09851563 19.44335938 -0.01171875 20.60546875 C0.00061466 24.17804652 0.74639971 26.68108123 2 30 C2 30.66 2 31.32 2 32 C-0.64 32.33 -3.28 32.66 -6 33 C-5.67 31.80375 -5.34 30.6075 -5 29.375 C-2.93471916 20.0885599 -3.70969473 10.35471321 -5 1 C-2 2 -2 2 -1 4 C-0.67 2.68 -0.34 1.36 0 0 Z " fill="#DB2A79" transform="translate(158,96)"/>
<path d="M0 0 C2.31 0 4.62 0 7 0 C7.33 1.65 7.66 3.3 8 5 C8.99 4.34 9.98 3.68 11 3 C11.99 3.33 12.98 3.66 14 4 C14 7.96 14 11.92 14 16 C14.99 16 15.98 16 17 16 C17.33333333 17.33333333 17.66666667 18.66666667 18 20 C18.20625 20.61875 18.4125 21.2375 18.625 21.875 C19.13117027 24.74329819 18.57908417 27.16892182 18 30 C16 26.25 16 26.25 16 24 C15.34 24 14.68 24 14 24 C13.72027344 23.23816406 13.44054687 22.47632812 13.15234375 21.69140625 C10.33853368 14.44426198 6.98787608 8.91760613 2 3 C1.34 2.01 0.68 1.02 0 0 Z " fill="#BA34A3" transform="translate(178,40)"/>
<path d="M0 0 C1.47265625 1.00390625 1.47265625 1.00390625 3 3 C3.3258438 5.74472033 3.46448502 8.19729377 3.4375 10.9375 C3.45748047 11.65357422 3.47746094 12.36964844 3.49804688 13.10742188 C3.49470565 16.71260752 3.28883394 18.63192335 1.03515625 21.50390625 C-1 23 -1 23 -2 23 C-2.66 26.96 -3.32 30.92 -4 35 C-4.33 35 -4.66 35 -5 35 C-4.25728355 4.25728355 -4.25728355 4.25728355 0 0 Z " fill="#743CB5" transform="translate(5,29)"/>
<path d="M0 0 C1.134375 0.020625 2.26875 0.04125 3.4375 0.0625 C2.4375 8.0625 1.4375 16.0625 0.4375 24.0625 C0.1075 24.0625 -0.2225 24.0625 -0.5625 24.0625 C-0.8925 22.4125 -1.2225 20.7625 -1.5625 19.0625 C-2.2225 21.0425 -2.8825 23.0225 -3.5625 25.0625 C-4.53517984 22.14446048 -4.69131796 20.24849867 -4.6953125 17.2109375 C-4.69724609 15.81101562 -4.69724609 15.81101562 -4.69921875 14.3828125 C-4.69341797 12.92488281 -4.69341797 12.92488281 -4.6875 11.4375 C-4.69136719 10.4578125 -4.69523437 9.478125 -4.69921875 8.46875 C-4.69792969 7.53804688 -4.69664063 6.60734375 -4.6953125 5.6484375 C-4.69418457 4.7929834 -4.69305664 3.9375293 -4.69189453 3.05615234 C-4.46229473 -0.48141736 -3.68202188 0.06459688 0 0 Z " fill="#9E3797" transform="translate(28.5625,63.9375)"/>
<path d="M0 0 C7.92 0 15.84 0 24 0 C24 0.66 24 1.32 24 2 C21.69 2.33 19.38 2.66 17 3 C17 3.66 17 4.32 17 5 C8.75 5 0.5 5 -8 5 C-8 4.01 -8 3.02 -8 2 C-5.36 2 -2.72 2 0 2 C0 1.34 0 0.68 0 0 Z " fill="#F98D3B" transform="translate(120,195)"/>
<path d="M0 0 C0 0.33 0 0.66 0 1 C-2.64 1.66 -5.28 2.32 -8 3 C-8.33 4.32 -8.66 5.64 -9 7 C-16.29643052 7.27023817 -23.05907076 6.31364308 -30 4 C-29.67 3.34 -29.34 2.68 -29 2 C-19.65920068 -0.78163509 -9.63373492 -0.2054588 0 0 Z " fill="#506CD7" transform="translate(65,0)"/>
<path d="M0 0 C8.25 0 16.5 0 25 0 C25 0.33 25 0.66 25 1 C29.95 1.33 34.9 1.66 40 2 C40 2.33 40 2.66 40 3 C32.08 3.33 24.16 3.66 16 4 C16 4.33 16 4.66 16 5 C9.62641289 5.96205088 3.44070471 6.10655578 -3 6 C-2.67 5.34 -2.34 4.68 -2 4 C-1.34 4 -0.68 4 0 4 C0 2.68 0 1.36 0 0 Z " fill="#883AAF" transform="translate(80,24)"/>
<path d="M0 0 C2.64 0 5.28 0 8 0 C8 2.31 8 4.62 8 7 C10.76264289 7.59732819 13.16032769 8 16 8 C16 10.64 16 13.28 16 16 C11.10841134 15.58072097 9.20000793 13.60000892 6 10 C5.54109375 9.49726563 5.0821875 8.99453125 4.609375 8.4765625 C2.23418051 5.78740552 0.41910565 3.63224893 0 0 Z " fill="#F4852B" transform="translate(48,160)"/>
<path d="M0 0 C0.66 0.33 1.32 0.66 2 1 C1.67 3.31 1.34 5.62 1 8 C-1.31 8.33 -3.62 8.66 -6 9 C-6.33 11.31 -6.66 13.62 -7 16 C-10.96 16.495 -10.96 16.495 -15 17 C-12.90469833 8.99975725 -8.51907202 5.00523241 -1.76953125 0.78515625 C-1.18558594 0.52605469 -0.60164063 0.26695313 0 0 Z " fill="#9C3B94" transform="translate(63,48)"/>
<path d="M0 0 C0.33 0 0.66 0 1 0 C1.05108129 7.73719434 1.08589239 15.47434451 1.10986328 23.21166992 C1.11986588 25.8389651 1.13347224 28.4662493 1.15087891 31.09350586 C1.17538113 34.88918787 1.1865409 38.68472155 1.1953125 42.48046875 C1.20563507 43.63830368 1.21595764 44.79613861 1.22659302 45.98905945 C1.22765011 53.82782011 0.40190301 61.28963277 -1 69 C-1.66 68.67 -2.32 68.34 -3 68 C-2.67 62.39 -2.34 56.78 -2 51 C-1.34 51 -0.68 51 0 51 C0 34.17 0 17.34 0 0 Z " fill="#D91468" transform="translate(179,88)"/>
<path d="M0 0 C4.95 0 9.9 0 15 0 C13 3 13 3 9.89624023 3.68139648 C5.79629148 4.01665766 1.77053358 4.12673944 -2.33984375 4.09765625 C-3.10680069 4.0962413 -3.87375763 4.09482635 -4.66395569 4.09336853 C-7.0885119 4.08781766 -9.51297219 4.07527463 -11.9375 4.0625 C-13.59179553 4.05747864 -15.24609253 4.05291685 -16.90039062 4.04882812 C-20.93363012 4.03786438 -24.96679886 4.02063424 -29 4 C-29 3.67 -29 3.34 -29 3 C-23.72 3 -18.44 3 -13 3 C-13 2.34 -13 1.68 -13 1 C-11.39592672 0.97291433 -9.7917215 0.95356517 -8.1875 0.9375 C-7.29417969 0.92589844 -6.40085938 0.91429687 -5.48046875 0.90234375 C-3 1 -3 1 0 2 C0 1.34 0 0.68 0 0 Z " fill="#F27232" transform="translate(141,176)"/>
<path d="M0 0 C2.97 0.495 2.97 0.495 6 1 C6 1.66 6 2.32 6 3 C8.64 3 11.28 3 14 3 C14 3.66 14 4.32 14 5 C16.64 4.34 19.28 3.68 22 3 C22 4.32 22 5.64 22 7 C22.99 7.66 23.98 8.32 25 9 C25 9.66 25 10.32 25 11 C15.91563448 10.10794808 8.60372776 6.9296339 1 2 C0.67 1.34 0.34 0.68 0 0 Z " fill="#FACF75" transform="translate(18,213)"/>
<path d="M0 0 C1.0010955 0.10277504 1.0010955 0.10277504 2.02241516 0.20762634 C8.6617519 0.85511634 15.24991484 1.19626146 21.91796875 1.31640625 C22.90122635 1.33718735 23.88448395 1.35796844 24.89753723 1.37937927 C27.99413041 1.44401141 31.09079772 1.50335195 34.1875 1.5625 C36.30534577 1.60576764 38.42318443 1.64938434 40.54101562 1.69335938 C45.69393726 1.79960226 50.84693234 1.90110435 56 2 C56 2.33 56 2.66 56 3 C40.16 3.495 40.16 3.495 24 4 C24 4.33 24 4.66 24 5 C20.7 5.33 17.4 5.66 14 6 C13.67 5.34 13.34 4.68 13 4 C8.71 4 4.42 4 0 4 C0 2.68 0 1.36 0 0 Z " fill="#F9B648" transform="translate(64,193)"/>
<path d="M0 0 C1.65 0 3.3 0 5 0 C5.4375 2.125 5.4375 2.125 5 5 C2.40141927 7.85093634 -0.5456033 10.27280165 -4 12 C-5.54613014 11.91348369 -7.08909387 11.75997364 -8.625 11.5625 C-9.44226563 11.46066406 -10.25953125 11.35882813 -11.1015625 11.25390625 C-11.72804688 11.17011719 -12.35453125 11.08632812 -13 11 C-13 10.67 -13 10.34 -13 10 C-10.36 9.67 -7.72 9.34 -5 9 C-5.33 7.35 -5.66 5.7 -6 4 C-2.25 2 -2.25 2 0 2 C0 1.34 0 0.68 0 0 Z " fill="#EA4751" transform="translate(128,126)"/>
<path d="M0 0 C0 0.66 0 1.32 0 2 C2.475 2.495 2.475 2.495 5 3 C-1.40697948 7.27131965 -8.42125279 8.42104151 -16 8 C-15.34 6.68 -14.68 5.36 -14 4 C-13.34 4 -12.68 4 -12 4 C-11.67 4.33 -11.34 4.66 -11 5 C-10.01 4.34 -9.02 3.68 -8 3 C-8.66 2.34 -9.32 1.68 -10 1 C-6.78548731 -0.60725635 -3.56387464 -0.05748185 0 0 Z " fill="#E64757" transform="translate(192,216)"/>
<path d="M0 0 C0.66 0.33 1.32 0.66 2 1 C1.88490339 2.41750563 1.75746342 3.83401169 1.625 5.25 C1.55539063 6.03890625 1.48578125 6.8278125 1.4140625 7.640625 C1 10 1 10 -0.0390625 12.0390625 C-1.14364148 14.29312205 -1.15096251 15.64355368 -1 18.125 C-1 19.40375 -1 20.6825 -1 22 C-1.66 22.66 -2.32 23.32 -3 24 C-4.32 24 -5.64 24 -7 24 C-7 23.34 -7 22.68 -7 22 C-6.34 22 -5.68 22 -5 22 C-5 21.34 -5 20.68 -5 20 C-6.32 19.67 -7.64 19.34 -9 19 C-8.68546875 18.55011719 -8.3709375 18.10023438 -8.046875 17.63671875 C-4.33936936 12.0642931 -2.08636551 6.34068624 0 0 Z " fill="#DD2F70" transform="translate(193,158)"/>
<path d="M0 0 C0.33 0 0.66 0 1 0 C1.02465622 4.25414623 1.04283899 8.50825498 1.05493164 12.76245117 C1.05997101 14.21070073 1.06680253 15.65894517 1.07543945 17.10717773 C1.08752247 19.18474588 1.09323211 21.26224697 1.09765625 23.33984375 C1.10289307 24.59144287 1.10812988 25.84304199 1.11352539 27.13256836 C1 30 1 30 0 31 C-0.36760731 33.32817964 -0.70241581 35.6618385 -1 38 C-1.33 38 -1.66 38 -2 38 C-2.05883232 33.72922608 -2.09387308 29.45855861 -2.125 25.1875 C-2.14175781 23.99189453 -2.15851562 22.79628906 -2.17578125 21.56445312 C-2.21623057 14.14200357 -1.64462645 7.24321669 0 0 Z " fill="#B44490" transform="translate(47,66)"/>
<path d="M0 0 C0.51949219 0.39832031 1.03898437 0.79664063 1.57421875 1.20703125 C5.28836315 4.02868254 8.98568913 6.61650292 13 9 C13 9.33 13 9.66 13 10 C8.05 10 3.1 10 -2 10 C-2 7.36 -2 4.72 -2 2 C-1.34 2 -0.68 2 0 2 C0 1.34 0 0.68 0 0 Z " fill="#F47038" transform="translate(82,142)"/>
<path d="M0 0 C0.99 0 1.98 0 3 0 C4.32915021 7.97490128 4.08801359 15.94186719 4 24 C1 22 1 22 0.31640625 19.3984375 C-0.05081155 15.45424636 -0.10902035 11.58280863 -0.0625 7.625 C-0.05798828 6.88894531 -0.05347656 6.15289062 -0.04882812 5.39453125 C-0.03715142 3.59631842 -0.01922011 1.79814803 0 0 Z " fill="#DE5051" transform="translate(26,112)"/>
<path d="M0 0 C7.12608999 0.29754029 12.6672508 1.71125344 19 5 C16.17068148 5.80928705 13.68915923 6.11148599 10.75 6.0625 C8.89375 6.0315625 8.89375 6.0315625 7 6 C6.67 5.34 6.34 4.68 6 4 C5.67 4.66 5.34 5.32 5 6 C2.03 6 -0.94 6 -4 6 C-4 5.34 -4 4.68 -4 4 C-2.68 3.34 -1.36 2.68 0 2 C0 1.34 0 0.68 0 0 Z " fill="#833EC0" transform="translate(182,2)"/>
<path d="M0 0 C0.33 0 0.66 0 1 0 C1.17015625 1.0621875 1.3403125 2.124375 1.515625 3.21875 C2.7963944 10.81361383 4.09091277 17.26019444 8 24 C8 24.66 8 25.32 8 26 C7.34 26 6.68 26 6 26 C6 25.34 6 24.68 6 24 C4.68 24 3.36 24 2 24 C2 23.34 2 22.68 2 22 C1.34 22 0.68 22 0 22 C0 14.74 0 7.48 0 0 Z " fill="#F9F5ED" transform="translate(0,176)"/>
<path d="M0 0 C0.99 0.33 1.98 0.66 3 1 C4.8621508 5.7300622 5.25833731 10.96242242 5 16 C2.36 16 -0.28 16 -3 16 C-2.67 14.68 -2.34 13.36 -2 12 C-2 12.66 -2 13.32 -2 14 C-0.35 14 1.3 14 3 14 C2.67 12.02 2.34 10.04 2 8 C1.0409375 8.2784375 1.0409375 8.2784375 0.0625 8.5625 C-0.618125 8.706875 -1.29875 8.85125 -2 9 C-3 8 -3 8 -3.0625 5.4375 C-3.041875 4.633125 -3.02125 3.82875 -3 3 C-2.01 3.495 -2.01 3.495 -1 4 C-0.67 2.68 -0.34 1.36 0 0 Z " fill="#B030AE" transform="translate(219,32)"/>
<path d="M0 0 C0.66 0.33 1.32 0.66 2 1 C1.67 1.66 1.34 2.32 1 3 C1.66 3.66 2.32 4.32 3 5 C2.625 8.125 2.625 8.125 2 11 C-3.75 12.125 -3.75 12.125 -6 11 C-5.62671065 5.64951939 -4.0042343 3.49087093 0 0 Z " fill="#D52F72" transform="translate(94,92)"/>
<path d="M0 0 C2.97 0 5.94 0 9 0 C8.34 3.3 7.68 6.6 7 10 C6.01 10 5.02 10 4 10 C4 8.68 4 7.36 4 6 C3.34 6 2.68 6 2 6 C1.67 7.65 1.34 9.3 1 11 C-0.17571451 7.32589215 -0.07366746 3.83070817 0 0 Z " fill="#D2376F" transform="translate(64,96)"/>
<path d="M0 0 C4.10958767 1.45044271 7.43258745 3.51110752 11 6 C10.34 6.66 9.68 7.32 9 8 C8.34 7.34 7.68 6.68 7 6 C4.41645782 5.83312552 4.41645782 5.83312552 2 6 C2.66 7.65 3.32 9.3 4 11 C3.34 11.66 2.68 12.32 2 13 C1.67 12.67 1.34 12.34 1 12 C-1.32817964 11.63239269 -3.6618385 11.29758419 -6 11 C-5.01 10.67 -4.02 10.34 -3 10 C-3 9.34 -3 8.68 -3 8 C-2.01 8 -1.02 8 0 8 C0 5.36 0 2.72 0 0 Z " fill="#BE3B9E" transform="translate(160,48)"/>
<path d="M0 0 C0.66 0.33 1.32 0.66 2 1 C-1.875 6.875 -1.875 6.875 -3 8 C-4.4887186 8.08669432 -5.981445 8.10703494 -7.47265625 8.09765625 C-8.37177734 8.09443359 -9.27089844 8.09121094 -10.19726562 8.08789062 C-11.14279297 8.07951172 -12.08832031 8.07113281 -13.0625 8.0625 C-14.01189453 8.05798828 -14.96128906 8.05347656 -15.93945312 8.04882812 C-18.29303065 8.0370011 -20.64648477 8.02052025 -23 8 C-23 7.67 -23 7.34 -23 7 C-22.01 6.82984375 -21.02 6.6596875 -20 6.484375 C-12.74090194 5.17239018 -6.51643901 3.57765279 0 0 Z " fill="#FBF4F4" transform="translate(200,217)"/>
<path d="M0 0 C0.99 0 1.98 0 3 0 C3.33 1.65 3.66 3.3 4 5 C4.33 5 4.66 5 5 5 C4.67 9.95 4.34 14.9 4 20 C3.34 18.68 2.68 17.36 2 16 C1.34 16 0.68 16 0 16 C0 10.72 0 5.44 0 0 Z " fill="#E36049" transform="translate(24,128)"/>
<path d="M0 0 C0.66 0.66 1.32 1.32 2 2 C4.65537372 2.56520003 7.29144713 2.73788198 10 3 C9.34 5.64 8.68 8.28 8 11 C7.34 11 6.68 11 6 11 C5.67 11.66 5.34 12.32 5 13 C1.68441485 8.61487125 0.45003347 5.62541841 0 0 Z " fill="#E65051" transform="translate(86,117)"/>
<path d="M0 0 C2.125 0.375 2.125 0.375 4 1 C3.34 1 2.68 1 2 1 C2 3.64 2 6.28 2 9 C-0.31 9.33 -2.62 9.66 -5 10 C-5.66 11.98 -6.32 13.96 -7 16 C-7.66 15.01 -8.32 14.02 -9 13 C-7.8782037 11.2063257 -6.75245517 9.4151227 -5.625 7.625 C-4.99851562 6.62726562 -4.37203125 5.62953125 -3.7265625 4.6015625 C-2 2 -2 2 0 0 Z " fill="#5A55CD" transform="translate(14,15)"/>
<path d="M0 0 C0.66 1.32 1.32 2.64 2 4 C1.34 4 0.68 4 0 4 C0.33 5.32 0.66 6.64 1 8 C0.38511719 7.96519531 -0.22976562 7.93039063 -0.86328125 7.89453125 C-1.67152344 7.86746094 -2.47976562 7.84039062 -3.3125 7.8125 C-4.11300781 7.77769531 -4.91351563 7.74289063 -5.73828125 7.70703125 C-8.52059766 8.06743493 -9.13213895 9.00656846 -11 11 C-11.99 11 -12.98 11 -14 11 C-13.9375 9.1875 -13.9375 9.1875 -13 7 C-11.33000706 6.21412097 -9.65061218 5.43945931 -7.921875 4.79296875 C-4.98719683 3.58211577 -2.58609395 1.8291884 0 0 Z " fill="#EC4E4E" transform="translate(177,184)"/>
<path d="M0 0 C0.33 0 0.66 0 1 0 C1.07347656 1.28197266 1.07347656 1.28197266 1.1484375 2.58984375 C1.22320312 3.69457031 1.29796875 4.79929687 1.375 5.9375 C1.44460937 7.03964844 1.51421875 8.14179687 1.5859375 9.27734375 C1.72257813 10.17582031 1.85921875 11.07429688 2 12 C2.66 12.33 3.32 12.66 4 13 C4.40729228 15.32156597 4.74438677 17.6568787 5 20 C1.04 20.495 1.04 20.495 -3 21 C-2.690625 19.7625 -2.38125 18.525 -2.0625 17.25 C-0.78031188 11.54835497 -0.37429453 5.82126496 0 0 Z " fill="#DD2C6F" transform="translate(155,108)"/>
<path d="M0 0 C2.97009138 3.96012185 3.54831119 5.25069853 4.0625 9.9375 C4.19785156 10.95714844 4.33320313 11.97679687 4.47265625 13.02734375 C4 16 4 16 -2 21 C-1.01 10.605 -1.01 10.605 0 0 Z " fill="#F4FEFC" transform="translate(179,144)"/>
<path d="M0 0 C1.54023996 0.06950541 3.08334988 0.08452357 4.625 0.0625 C5.44226563 0.05347656 6.25953125 0.04445312 7.1015625 0.03515625 C7.72804687 0.02355469 8.35453125 0.01195312 9 0 C9 0.66 9 1.32 9 2 C0.75 2 -7.5 2 -16 2 C-16 1.01 -16 0.02 -16 -1 C-10.38592148 -1.87115011 -5.28813621 -2.6440681 0 0 Z " fill="#F9A249" transform="translate(128,198)"/>
<path d="M0 0 C2.58340384 -0.02703562 5.16652308 -0.04685611 7.75 -0.0625 C8.47960937 -0.07087891 9.20921875 -0.07925781 9.9609375 -0.08789062 C15.55374668 -0.11331248 15.55374668 -0.11331248 17.99316406 0.50610352 C20.30289724 1.15931747 20.30289724 1.15931747 24 1 C24 1.99 24 2.98 24 4 C20.93675381 3.88576707 17.87489086 3.75902148 14.8125 3.625 C13.51602539 3.57859375 13.51602539 3.57859375 12.19335938 3.53125 C7.74104978 3.32654611 4.05007413 3.06277067 0 1 C0 0.67 0 0.34 0 0 Z " fill="#F8A13E" transform="translate(64,176)"/>
<path d="M0 0 C0 0.33 0 0.66 0 1 C-3.0621826 1.19533059 -6.12446321 1.38153284 -9.1875 1.5625 C-10.48397461 1.64661133 -10.48397461 1.64661133 -11.80664062 1.73242188 C-16.12359043 1.98052244 -19.75954843 1.90462967 -24 1 C-26.44043988 1.08322732 -28.87923369 1.23283274 -31.3125 1.4375 C-32.56675781 1.53933594 -33.82101563 1.64117187 -35.11328125 1.74609375 C-36.54220703 1.87177734 -36.54220703 1.87177734 -38 2 C-26.88578287 -3.79257927 -12.13034138 -0.86205472 0 0 Z " fill="#A6439C" transform="translate(104,46)"/>
<path d="M0 0 C4.95 0 9.9 0 15 0 C12.35658072 1.76227952 9.76922765 3.19871008 6.9375 4.625 C6.05964844 5.07101563 5.18179688 5.51703125 4.27734375 5.9765625 C2 7 2 7 0 7 C0 4.69 0 2.38 0 0 Z " fill="#7D39AF" transform="translate(48,32)"/>
<path d="M0 0 C1.299375 -0.02126953 1.299375 -0.02126953 2.625 -0.04296875 C5 0.1875 5 0.1875 8 2.1875 C10.05709596 2.42805468 10.05709596 2.42805468 12.1875 2.3125 C13.445625 2.27125 14.70375 2.23 16 2.1875 C16 2.5175 16 2.8475 16 3.1875 C11.6686275 3.55224716 7.33606685 3.88357008 3 4.1875 C2.2471875 4.24421875 1.494375 4.3009375 0.71875 4.359375 C-2.29210009 4.49142983 -3.83741601 4.28755168 -6.4375 2.6875 C-6.953125 2.1925 -7.46875 1.6975 -8 1.1875 C-5.07345473 0.21198491 -3.05345004 0.02271912 0 0 Z " fill="#FCC05E" transform="translate(72,195.8125)"/>
<path d="M0 0 C0.66 0.33 1.32 0.66 2 1 C2 10.57 2 20.14 2 30 C0.30650476 26.61300953 -0.25614078 25.4392321 -0.44921875 21.953125 C-0.49240234 21.19 -0.53558594 20.426875 -0.58007812 19.640625 C-0.61552734 18.85171875 -0.65097656 18.0628125 -0.6875 17.25 C-0.73455078 16.4765625 -0.78160156 15.703125 -0.83007812 14.90625 C-1.09149951 9.79781902 -0.76780211 5.05710262 0 0 Z " fill="#EF6D32" transform="translate(46,128)"/>
<path d="M0 0 C0.66 0 1.32 0 2 0 C3.60881575 7.42640842 4.26442904 14.40501039 4 22 C3.34 22 2.68 22 2 22 C0.71702277 14.58851545 -0.25515919 7.52719602 0 0 Z " fill="#CC3C96" transform="translate(176,66)"/>
<path d="M0 0 C1.5625 1.1875 1.5625 1.1875 3 3 C2.75 5.25 2.75 5.25 2 8 C1.855625 9.2375 1.71125 10.475 1.5625 11.75 C1.376875 12.8225 1.19125 13.895 1 15 C0.01 15.495 0.01 15.495 -1 16 C-3.18040395 12.72939407 -3.22083539 12.23625511 -2.75 8.5625 C-2.66234375 7.80066406 -2.5746875 7.03882813 -2.484375 6.25390625 C-1.97971611 3.90561448 -1.16278978 2.0920685 0 0 Z " fill="#693EBE" transform="translate(5,29)"/>
<path d="M0 0 C4.43458973 1.3937282 6.87378374 3.60582235 10 7 C9 8 9 8 6.93359375 8.09765625 C6.10988281 8.08605469 5.28617188 8.07445312 4.4375 8.0625 C3.61121094 8.05347656 2.78492188 8.04445313 1.93359375 8.03515625 C1.29550781 8.02355469 0.65742188 8.01195312 0 8 C0 5.36 0 2.72 0 0 Z " fill="#8F38BF" transform="translate(200,8)"/>
<path d="M0 0 C3.70951453 3.70951453 5.09691727 9.16909769 7 14 C4.69 14 2.38 14 0 14 C0 9.38 0 4.76 0 0 Z " fill="#F3882D" transform="translate(32,162)"/>
<path d="M0 0 C0.33 0.66 0.66 1.32 1 2 C1.99 2.33 2.98 2.66 4 3 C4.33 4.32 4.66 5.64 5 7 C0.38 7 -4.24 7 -9 7 C-6.16032769 4.16032769 -3.35997108 2.1653147 0 0 Z " fill="#F25356" transform="translate(139,145)"/>
<path d="M0 0 C2.31 0 4.62 0 7 0 C5.40109514 5.19644079 3.25861997 10.06612142 1 15 C0.67 15 0.34 15 0 15 C0 10.05 0 5.1 0 0 Z " fill="#8D3CA3" transform="translate(32,48)"/>
<path d="M0 0 C0.66 0 1.32 0 2 0 C4.56634962 6.41587404 4.68072719 12.27709124 3 19 C2.34 19 1.68 19 1 19 C0.80372609 17.41773035 0.61834462 15.83410729 0.4375 14.25 C0.33308594 13.36828125 0.22867188 12.4865625 0.12109375 11.578125 C0.00466835 9.09939064 0.3865681 7.37193667 1 5 C0.14209817 2.78228936 0.14209817 2.78228936 -1 1 C-0.67 0.67 -0.34 0.34 0 0 Z " fill="#DD2C6F" transform="translate(136,102)"/>
<path d="M0 0 C0.66 0.33 1.32 0.66 2 1 C1.67 3.31 1.34 5.62 1 8 C-0.11375 7.79375 -1.2275 7.5875 -2.375 7.375 C-3.57125 7.25125 -4.7675 7.1275 -6 7 C-6.66 7.66 -7.32 8.32 -8 9 C-8.99 8.67 -9.98 8.34 -11 8 C-9.5433323 6.85204994 -8.08461063 5.70670581 -6.625 4.5625 C-5.40683594 3.60537109 -5.40683594 3.60537109 -4.1640625 2.62890625 C-2 1 -2 1 0 0 Z " fill="#9F49A1" transform="translate(63,48)"/>
<path d="M0 0 C2.93774463 -0.05390357 5.87450232 -0.0936255 8.8125 -0.125 C10.06256836 -0.15013672 10.06256836 -0.15013672 11.33789062 -0.17578125 C12.14033203 -0.18222656 12.94277344 -0.18867187 13.76953125 -0.1953125 C14.50792236 -0.20578613 15.24631348 -0.21625977 16.00708008 -0.22705078 C18 0 18 0 21 2 C16.50343896 4.24828052 12.92127034 4.16682272 8 4 C8 3.01 8 2.02 8 1 C5.36 1 2.72 1 0 1 C0 0.67 0 0.34 0 0 Z " fill="#8155CC" transform="translate(160,0)"/>
<path d="M0 0 C4.62 0 9.24 0 14 0 C14 2.31 14 4.62 14 7 C9.38 5.02 4.76 3.04 0 1 C0 0.67 0 0.34 0 0 Z " fill="#AE3BAD" transform="translate(162,32)"/>
<path d="M0 0 C0 1.98 0 3.96 0 6 C-5.445 6.495 -5.445 6.495 -11 7 C-7.77208445 4.8480563 -6.71599191 4.79913557 -3 5 C-3 4.34 -3 3.68 -3 3 C-8.28 3 -13.56 3 -19 3 C-19 2.67 -19 2.34 -19 2 C-16.39610703 1.66440045 -13.7919239 1.33143142 -11.1875 1 C-10.44951172 0.90460938 -9.71152344 0.80921875 -8.95117188 0.7109375 C-5.94569605 0.33015323 -3.03285559 0 0 0 Z " fill="#F37056" transform="translate(163,192)"/>
<path d="M0 0 C6.27 0 12.54 0 19 0 C19 1.65 19 3.3 19 5 C12.73 3.68 6.46 2.36 0 1 C0 0.67 0 0.34 0 0 Z " fill="#F6F0F7" transform="translate(178,0)"/>
<path d="M0 0 C0.66 0 1.32 0 2 0 C2 1.65 2 3.3 2 5 C1.071875 5.3403125 1.071875 5.3403125 0.125 5.6875 C-2.62260139 7.38454792 -2.93210179 9.02514071 -4 12 C-4.99 12.495 -4.99 12.495 -6 13 C-7.13350534 15.01669827 -7.13350534 15.01669827 -8 17 C-8.99 16.34 -9.98 15.68 -11 15 C-10.54109375 14.50371094 -10.0821875 14.00742188 -9.609375 13.49609375 C-5.74280707 9.21525069 -2.66482385 5.11646179 0 0 Z " fill="#F6F4F9" transform="translate(219,197)"/>
<path d="M0 0 C2.64 0 5.28 0 8 0 C7.67 2.64 7.34 5.28 7 8 C5.1875 7.8125 5.1875 7.8125 3 7 C0 2.82142857 0 2.82142857 0 0 Z " fill="#F9AE4D" transform="translate(8,200)"/>
<path d="M0 0 C1.98 0 3.96 0 6 0 C6 2.64 6 5.28 6 8 C2.31245243 7.50168276 0.39509338 6.89932357 -2 4 C-1.34 2.68 -0.68 1.36 0 0 Z " fill="#F89536" transform="translate(58,168)"/>
<path d="M0 0 C1.98 0 3.96 0 6 0 C5.47731534 2.76276177 4.89130413 5.3260876 4 8 C3.65179959 9.66362417 3.31595508 11.32995171 3 13 C2.34 13 1.68 13 1 13 C-0.10228696 8.59085217 -0.07654536 4.51617599 0 0 Z " fill="#EC7F3F" transform="translate(0,168)"/>
<path d="M0 0 C0.66 0 1.32 0 2 0 C4.35119399 3.52679099 4.21443452 5.02879485 4.125 9.1875 C4.10695313 10.27417969 4.08890625 11.36085938 4.0703125 12.48046875 C4.03550781 13.72763672 4.03550781 13.72763672 4 15 C3.34 14.34 2.68 13.68 2 13 C1.01 13.495 1.01 13.495 0 14 C0 9.38 0 4.76 0 0 Z " fill="#DE3B60" transform="translate(66,102)"/>
<path d="M0 0 C-2.383244 2.383244 -3.54647708 2.45158236 -6.8125 3 C-10.4250944 3.65873646 -13.65107875 4.43717009 -17 6 C-17.33 5.01 -17.66 4.02 -18 3 C-11.92122066 -0.24201565 -6.81598387 -0.33278764 0 0 Z " fill="#CF307F" transform="translate(117,85)"/>
<path d="M0 0 C1.65 0.33 3.3 0.66 5 1 C5.33 2.98 5.66 4.96 6 7 C4.73392393 7.53229326 3.46189588 8.05044544 2.1875 8.5625 C1.47980469 8.85253906 0.77210938 9.14257812 0.04296875 9.44140625 C-2 10 -2 10 -5 9 C-3.35 8.67 -1.7 8.34 0 8 C0 5.36 0 2.72 0 0 Z " fill="#ED4A4F" transform="translate(160,168)"/>
<path d="M0 0 C2.10353495 -0.0810206 4.20795952 -0.13919907 6.3125 -0.1875 C7.48425781 -0.22230469 8.65601562 -0.25710937 9.86328125 -0.29296875 C13 0 13 0 14.91796875 1.51171875 C15.27503906 2.00285156 15.63210937 2.49398437 16 3 C10.91913204 3.84681133 6.15171623 4.09038099 1 4 C0.67 2.68 0.34 1.36 0 0 Z " fill="#F86227" transform="translate(107,155)"/>
<path d="M0 0 C2.56616632 3.84924948 2.55097676 6.4349304 3 11 C2.67 10.34 2.34 9.68 2 9 C-0.31 9.66 -2.62 10.32 -5 11 C-4.34 8.36 -3.68 5.72 -3 3 C-2.34 3 -1.68 3 -1 3 C-0.67 2.01 -0.34 1.02 0 0 Z " fill="#EE524F" transform="translate(69,117)"/>
<path d="M0 0 C-3 2 -3 2 -5.5 3.375 C-8.02470474 5.01605808 -9.36410173 6.50310264 -11 9 C-11.29296875 2.9453125 -11.29296875 2.9453125 -11 1 C-6.8204355 -1.78637633 -4.85331323 -0.79562512 0 0 Z " fill="#BE2F92" transform="translate(157,57)"/>
<path d="M0 0 C3.96 1.98 7.92 3.96 12 6 C12 6.33 12 6.66 12 7 C8.04 7 4.08 7 0 7 C0 4.69 0 2.38 0 0 Z " fill="#F8B54E" transform="translate(48,185)"/>
<path d="M0 0 C0.33 0 0.66 0 1 0 C1.02685095 2.47923801 1.04676547 4.9581884 1.0625 7.4375 C1.07087891 8.14455078 1.07925781 8.85160156 1.08789062 9.58007812 C1.09653588 11.38693559 1.05220011 13.19387603 1 15 C0.67 15.33 0.34 15.66 0 16 C-0.36760731 18.32817964 -0.70241581 20.6618385 -1 23 C-1.33 23 -1.66 23 -2 23 C-2 17.72 -2 12.44 -2 7 C-1.34 7 -0.68 7 0 7 C0 4.69 0 2.38 0 0 Z " fill="#BD257B" transform="translate(47,81)"/>
<path d="M0 0 C3.125 0.375 3.125 0.375 6 1 C5.67 1.99 5.34 2.98 5 4 C5.99 4.99 6.98 5.98 8 7 C7.67 7.66 7.34 8.32 7 9 C3.18315774 7.44499019 0.80804268 4.96404505 -2 2 C-1.34 1.34 -0.68 0.68 0 0 Z " fill="#FAF5FA" transform="translate(207,8)"/>
<path d="M0 0 C0.99 0.33 1.98 0.66 3 1 C3 5.95 3 10.9 3 16 C2.34 15.67 1.68 15.34 1 15 C-0.24024621 10.03901518 -0.10151176 5.07558808 0 0 Z " fill="#DD2C79" transform="translate(176,120)"/>
<path d="M0 0 C3.26954202 0.56371414 4.82575883 1.49962266 7 4 C6.67 4.99 6.34 5.98 6 7 C5.67 6.01 5.34 5.02 5 4 C4.34 4 3.68 4 3 4 C3.33 6.31 3.66 8.62 4 11 C3.01 11 2.02 11 1 11 C0.67 8.69 0.34 6.38 0 4 C-1.32 3.67 -2.64 3.34 -4 3 C-2.68 2.67 -1.36 2.34 0 2 C0 1.34 0 0.68 0 0 Z " fill="#D32875" transform="translate(127,91)"/>
<path d="M0 0 C0.66 0 1.32 0 2 0 C2 3.33333333 2 6.66666667 2 10 C-0.31 9.67 -2.62 9.34 -5 9 C-5 6 -5 6 -3.0625 3.9375 C-2.381875 3.298125 -1.70125 2.65875 -1 2 C-0.67 1.34 -0.34 0.68 0 0 Z " fill="#DD3D59" transform="translate(182,182)"/>
<path d="M0 0 C3.69790046 1.23263349 3.9354846 2.20052451 5.6875 5.5625 C6.12449219 6.38878906 6.56148438 7.21507812 7.01171875 8.06640625 C7.33785156 8.70449219 7.66398437 9.34257812 8 10 C7.34 10 6.68 10 6 10 C6 9.34 6 8.68 6 8 C5.01 8 4.02 8 3 8 C3 8.66 3 9.32 3 10 C2.34 10 1.68 10 1 10 C0.67 6.7 0.34 3.4 0 0 Z " fill="#EF714E" transform="translate(72,130)"/>
<path d="M0 0 C0.33 0 0.66 0 1 0 C1 3.96 1 7.92 1 12 C0.67 10.68 0.34 9.36 0 8 C-0.66 8 -1.32 8 -2 8 C-2 9.32 -2 10.64 -2 12 C-2.66 12 -3.32 12 -4 12 C-4 9.36 -4 6.72 -4 4 C-3.01 3.67 -2.02 3.34 -1 3 C-0.67 2.01 -0.34 1.02 0 0 Z " fill="#DC4F53" transform="translate(68,112)"/>
<path d="M0 0 C0.99 0.66 1.98 1.32 3 2 C3.1875 4.625 3.1875 4.625 3 7 C0.03 6.67 -2.94 6.34 -6 6 C-4 4 -2 2 0 0 Z " fill="#535CD3" transform="translate(21,9)"/>
<path d="M0 0 C0.33 0 0.66 0 1 0 C1.91297308 4.97063121 1.91297308 9.02936879 1 14 C-0.65 13.01 -2.3 12.02 -4 11 C-3.71125 10.484375 -3.4225 9.96875 -3.125 9.4375 C-1.71219973 6.37643275 -0.8751483 3.25055082 0 0 Z " fill="#E3355E" transform="translate(151,130)"/>
<path d="M0 0 C0.99 0 1.98 0 3 0 C3 5.28 3 10.56 3 16 C2.67 16 2.34 16 2 16 C2 13.36 2 10.72 2 8 C1.01 8 0.02 8 -1 8 C-0.67 5.36 -0.34 2.72 0 0 Z " fill="#C7386B" transform="translate(27,104)"/>
<path d="M0 0 C0.33 0 0.66 0 1 0 C1.22127098 2.29045368 1.4266504 4.58244764 1.625 6.875 C1.74101563 8.15117187 1.85703125 9.42734375 1.9765625 10.7421875 C1.98429687 11.81726563 1.99203125 12.89234375 2 14 C1.34 14.66 0.68 15.32 0 16 C-0.99 16 -1.98 16 -3 16 C-2.67 13.36 -2.34 10.72 -2 8 C-1.34 8 -0.68 8 0 8 C0 5.36 0 2.72 0 0 Z " fill="#FBE8DC" transform="translate(45,144)"/>
<path d="M0 0 C0.66 0 1.32 0 2 0 C2.103125 0.639375 2.20625 1.27875 2.3125 1.9375 C2.539375 2.618125 2.76625 3.29875 3 4 C3.99 4.33 4.98 4.66 6 5 C7.21631654 8.45689963 8 11.32831864 8 15 C3.74016783 11.50085215 1.84327045 7.07879837 0 2 C0 1.34 0 0.68 0 0 Z " fill="#F9F4F0" transform="translate(72,124)"/>
<path d="M0 0 C1.3921875 0.4640625 1.3921875 0.4640625 2.8125 0.9375 C7.77871546 2.3783156 12.86205306 2.64694036 18 3 C18 3.33 18 3.66 18 4 C15.75215576 4.24942657 13.50152494 4.47383488 11.25 4.6875 C9.99703125 4.81511719 8.7440625 4.94273437 7.453125 5.07421875 C4 5 4 5 1.546875 3.64453125 C0 2 0 2 0 0 Z M2 5 C2.66 5 3.32 5 4 5 C4 5.66 4 6.32 4 7 C3.34 7 2.68 7 2 7 C2 6.34 2 5.68 2 5 Z " fill="#FAF1E8" transform="translate(62,176)"/>
<path d="M0 0 C0.33 0.66 0.66 1.32 1 2 C3.52733235 2.65555119 3.52733235 2.65555119 6 3 C2.66039844 5.22640104 -0.08610984 6.16130925 -4 7 C-4.99 6.34 -5.98 5.68 -7 5 C-5.5459375 4.5978125 -5.5459375 4.5978125 -4.0625 4.1875 C-3.051875 3.795625 -2.04125 3.40375 -1 3 C-0.67 2.01 -0.34 1.02 0 0 Z " fill="#E43F66" transform="translate(191,216)"/>
<path d="M0 0 C4.95 0 9.9 0 15 0 C14.01 1.485 14.01 1.485 13 3 C10.72265625 3.328125 10.72265625 3.328125 8.0625 3.25 C7.18722656 3.23453125 6.31195313 3.2190625 5.41015625 3.203125 C3 3 3 3 0 2 C0 1.34 0 0.68 0 0 Z " fill="#F35A3A" transform="translate(141,176)"/>
<path d="M0 0 C0.99 0.33 1.98 0.66 3 1 C1.84334866 4.46995401 0.81924446 4.88556665 -2 7 C-2.33 7.99 -2.66 8.98 -3 10 C-5.0625 10.6875 -5.0625 10.6875 -7 11 C-5.5140084 6.40693504 -3.14985318 3.56430755 0 0 Z " fill="#F6EFF7" transform="translate(81,84)"/>
<path d="M0 0 C1.65 0 3.3 0 5 0 C5.375 2.1875 5.375 2.1875 5 5 C3.16038352 6.99022836 1.20813852 8.38989899 -1 10 C-1.33 8.68 -1.66 7.36 -2 6 C-1.01 6 -0.02 6 1 6 C0.67 5.34 0.34 4.68 0 4 C-0.33 3.34 -0.66 2.68 -1 2 C-0.67 1.34 -0.34 0.68 0 0 Z " fill="#ED405D" transform="translate(128,126)"/>
<path d="M0 0 C1.32 0.33 2.64 0.66 4 1 C3.67 3.31 3.34 5.62 3 8 C2.34 8 1.68 8 1 8 C1 10.64 1 13.28 1 16 C0.67 16 0.34 16 0 16 C0 10.72 0 5.44 0 0 Z " fill="#E35043" transform="translate(45,120)"/>
<path d="M0 0 C3.24271506 0.5590888 4.93057424 1.4132178 7 4 C7 4.66 7 5.32 7 6 C3.37 5.34 -0.26 4.68 -4 4 C-2.68 3.67 -1.36 3.34 0 3 C0 2.01 0 1.02 0 0 Z " fill="#FDD986" transform="translate(36,218)"/>
<path d="M0 0 C0.99 0 1.98 0 3 0 C3 2.64 3 5.28 3 8 C2.34 8 1.68 8 1 8 C1 10.64 1 13.28 1 16 C0.67 16 0.34 16 0 16 C0 10.72 0 5.44 0 0 Z " fill="#D04D64" transform="translate(26,112)"/>
<path d="M0 0 C2 2 2 2 2.1953125 4.6015625 C2.17210937 5.59929687 2.14890625 6.59703125 2.125 7.625 C2.10695313 8.62789062 2.08890625 9.63078125 2.0703125 10.6640625 C2.03550781 11.82035156 2.03550781 11.82035156 2 13 C-0.77543023 10.41159337 -1.72362633 8.8692314 -2 5 C-1.0625 2.1875 -1.0625 2.1875 0 0 Z " fill="#F3973B" transform="translate(6,187)"/>
<path d="M0 0 C-0.92652701 1.17539996 -1.86663387 2.34010577 -2.8125 3.5 C-3.33457031 4.1496875 -3.85664062 4.799375 -4.39453125 5.46875 C-6 7 -6 7 -9 7 C-8.649375 6.38125 -8.29875 5.7625 -7.9375 5.125 C-7.628125 4.42375 -7.31875 3.7225 -7 3 C-7.33 2.34 -7.66 1.68 -8 1 C-3.375 -1.125 -3.375 -1.125 0 0 Z " fill="#CC3B8A" transform="translate(86,79)"/>
<path d="M0 0 C2.31 0 4.62 0 7 0 C7.33 2.31 7.66 4.62 8 7 C4.2047869 5.50902342 2.38957269 3.24299151 0 0 Z " fill="#AC2C9F" transform="translate(178,40)"/>
<path d="M0 0 C0.33 0 0.66 0 1 0 C1.33 5.28 1.66 10.56 2 16 C1.01 16 0.02 16 -1 16 C-0.67 10.72 -0.34 5.44 0 0 Z " fill="#F2874B" transform="translate(30,144)"/>
<path d="M0 0 C1.51953125 1.08203125 1.51953125 1.08203125 3 3 C3.07421875 6.13671875 3.07421875 6.13671875 2.6875 9.6875 C2.50767578 11.45673828 2.50767578 11.45673828 2.32421875 13.26171875 C2.21722656 14.16535156 2.11023438 15.06898437 2 16 C1.67 16 1.34 16 1 16 C0.93941406 15.32453125 0.87882813 14.6490625 0.81640625 13.953125 C0.73261719 13.06109375 0.64882812 12.1690625 0.5625 11.25 C0.48128906 10.36828125 0.40007812 9.4865625 0.31640625 8.578125 C0.06699735 6.04018545 0.06699735 6.04018545 -0.59765625 3.796875 C-1 2 -1 2 0 0 Z " fill="#CA379E" transform="translate(195,72)"/>
<path d="M0 0 C5.28 0 10.56 0 16 0 C16 0.66 16 1.32 16 2 C13.36 2.33 10.72 2.66 8 3 C8 2.34 8 1.68 8 1 C5.36 1 2.72 1 0 1 C0 0.67 0 0.34 0 0 Z " fill="#F76935" transform="translate(144,195)"/>
<path d="M0 0 C0 1.98 0 3.96 0 6 C0.66 6 1.32 6 2 6 C1.34 7.32 0.68 8.64 0 10 C-0.66 10 -1.32 10 -2 10 C-2.33 10.66 -2.66 11.32 -3 12 C-2.814375 10.9275 -2.62875 9.855 -2.4375 8.75 C-2.0695432 5.59608454 -1.95534657 3.90181508 -3 1 C-1 0 -1 0 0 0 Z " fill="#E6347C" transform="translate(196,154)"/>
<path d="M0 0 C2.31 1.98 4.62 3.96 7 6 C5.02 6.99 5.02 6.99 3 8 C2.01 7.34 1.02 6.68 0 6 C-0.1875 2.875 -0.1875 2.875 0 0 Z " fill="#FBF2F1" transform="translate(89,128)"/>
<path d="M0 0 C0.33 0 0.66 0 1 0 C1.04898438 0.85464844 1.09796875 1.70929688 1.1484375 2.58984375 C1.22320312 3.69457031 1.29796875 4.79929687 1.375 5.9375 C1.44460937 7.03964844 1.51421875 8.14179687 1.5859375 9.27734375 C1.72257813 10.17582031 1.85921875 11.07429688 2 12 C2.66 12.33 3.32 12.66 4 13 C4 14.65 4 16.3 4 18 C1.49038666 16.3473278 0.37988656 15.6053082 -1 13 C-1.14925554 8.59696154 -0.64352889 4.3517845 0 0 Z " fill="#E3206D" transform="translate(155,108)"/>
<path d="M0 0 C1.32 0.33 2.64 0.66 4 1 C3.83628906 1.56203125 3.67257813 2.1240625 3.50390625 2.703125 C2.97135003 5.13059056 2.90101319 7.26889681 2.9375 9.75 C2.94652344 10.54921875 2.95554688 11.3484375 2.96484375 12.171875 C2.97644531 12.77515625 2.98804688 13.3784375 3 14 C-0.22086438 10.77913562 0.01922489 7.03814427 -0.0625 2.625 C-0.041875 1.75875 -0.02125 0.8925 0 0 Z " fill="#C93998" transform="translate(144,56)"/>
<path d="M0 0 C2.31 0 4.62 0 7 0 C5.02 2.31 3.04 4.62 1 7 C0 4 0 4 0 0 Z " fill="#7B35A7" transform="translate(40,40)"/>
<path d="M0 0 C1.98 0.495 1.98 0.495 4 1 C4 1.66 4 2.32 4 3 C4.66 3.33 5.32 3.66 6 4 C6 5.32 6 6.64 6 8 C4 6.625 4 6.625 2 5 C2 4.34 2 3.68 2 3 C1.01 2.67 0.02 2.34 -1 2 C-0.67 1.34 -0.34 0.68 0 0 Z " fill="#FCF1E3" transform="translate(41,176)"/>
<path d="M0 0 C2 2 2 2 2 6 C0.02 6 -1.96 6 -4 6 C-2.25 1.125 -2.25 1.125 0 0 Z " fill="#AA369A" transform="translate(54,58)"/>
<path d="M0 0 C2.69504819 2.69504819 5 6.08360477 5 10 C4.34 10 3.68 10 3 10 C3 9.34 3 8.68 3 8 C2.34 8 1.68 8 1 8 C0.01 6.02 -0.98 4.04 -2 2 C-1.34 2 -0.68 2 0 2 C0 1.34 0 0.68 0 0 Z " fill="#FAECE1" transform="translate(3,192)"/>
<path d="M0 0 C1.98567708 0.09765625 3.97135417 0.1953125 5.95703125 0.29296875 C5.95703125 1.28296875 5.95703125 2.27296875 5.95703125 3.29296875 C2.32703125 3.29296875 -1.30296875 3.29296875 -5.04296875 3.29296875 C-2.04296875 0.29296875 -2.04296875 0.29296875 0 0 Z " fill="#EF4E46" transform="translate(135.04296875,148.70703125)"/>
<path d="M0 0 C0.99 0.66 1.98 1.32 3 2 C0.69 3.65 -1.62 5.3 -4 7 C-5.32 6.34 -6.64 5.68 -8 5 C-6.35 5 -4.7 5 -3 5 C-3 4.01 -3 3.02 -3 2 C-2.01 1.34 -1.02 0.68 0 0 Z " fill="#F7F4EF" transform="translate(137,143)"/>
<path d="M0 0 C0 0.33 0 0.66 0 1 C-4.96073422 2.32286246 -9.91111512 2.08893197 -15 2 C-15 1.67 -15 1.34 -15 1 C-9.4584498 -0.96263236 -5.79141983 -1.01603857 0 0 Z " fill="#F1635F" transform="translate(122,138)"/>
<path d="M0 0 C2.31 0 4.62 0 7 0 C6.6875 1.9375 6.6875 1.9375 6 4 C5.01 4.33 4.02 4.66 3 5 C2.01 4.34 1.02 3.68 0 3 C0 2.01 0 1.02 0 0 Z " fill="#CE3378" transform="translate(64,96)"/>
<path d="M0 0 C2 1 2 1 4 4 C-0.455 5.485 -0.455 5.485 -5 7 C-3.75023244 3.34683329 -3.32901247 2.21934164 0 0 Z " fill="#F5E9F3" transform="translate(152,59)"/>
<path d="M0 0 C0 1.98 0 3.96 0 6 C-1.65 5.67 -3.3 5.34 -5 5 C-4.625 3.0625 -4.625 3.0625 -4 1 C-2 0 -2 0 0 0 Z " fill="#A535A0" transform="translate(64,50)"/>
<path d="M0 0 C0.99 0.33 1.98 0.66 3 1 C2.34 2.98 1.68 4.96 1 7 C0.34 7 -0.32 7 -1 7 C-1.33 7.66 -1.66 8.32 -2 9 C-3 8 -3 8 -3.0625 5.4375 C-3.041875 4.633125 -3.02125 3.82875 -3 3 C-2.01 3.495 -2.01 3.495 -1 4 C-0.67 2.68 -0.34 1.36 0 0 Z " fill="#B236BD" transform="translate(219,32)"/>
<path d="M0 0 C0.33 0 0.66 0 1 0 C1.33 4.62 1.66 9.24 2 14 C1.01 14 0.02 14 -1 14 C-0.67 9.38 -0.34 4.76 0 0 Z " fill="#F5D7E4" transform="translate(179,144)"/>
<path d="M0 0 C0.99 0.33 1.98 0.66 3 1 C1.6302836 4.99500618 -0.25722422 7.80009492 -3 11 C-3.33 10.01 -3.66 9.02 -4 8 C-3.34 7.67 -2.68 7.34 -2 7 C-1.26924352 4.6859378 -0.59861742 2.35171131 0 0 Z " fill="#C62875" transform="translate(76,84)"/>
<path d="M0 0 C0.66 1.32 1.32 2.64 2 4 C1.34 4 0.68 4 0 4 C0 4.66 0 5.32 0 6 C-2.97 5.505 -2.97 5.505 -6 5 C-5.195625 4.360625 -4.39125 3.72125 -3.5625 3.0625 C-1.7249496 1.59396498 -1.7249496 1.59396498 0 0 Z " fill="#ED4A5D" transform="translate(177,184)"/>
<path d="M0 0 C1.32 0.33 2.64 0.66 4 1 C3.34 2.32 2.68 3.64 2 5 C-2 5 -2 5 -4 4 C-3.67 3.34 -3.34 2.68 -3 2 C-2.01 2 -1.02 2 0 2 C0 1.34 0 0.68 0 0 Z " fill="#E83E67" transform="translate(172,162)"/>
<path d="M0 0 C1 3 1 3 -0.4375 6.1875 C-1.2109375 7.5796875 -1.2109375 7.5796875 -2 9 C-2.66 9 -3.32 9 -4 9 C-4.33 8.01 -4.66 7.02 -5 6 C-3.59554165 3.7363436 -1.8032087 1.9791315 0 0 Z " fill="#F9DBF0" transform="translate(166,67)"/>
<path d="M0 0 C1.65 1.65 3.3 3.3 5 5 C4.01 5.66 3.02 6.32 2 7 C2 6.01 2 5.02 2 4 C1.34 4 0.68 4 0 4 C0 4.66 0 5.32 0 6 C-0.66 5.67 -1.32 5.34 -2 5 C-2 4.01 -2 3.02 -2 2 C-1.34 2 -0.68 2 0 2 C0 1.34 0 0.68 0 0 Z " fill="#FBF5EB" transform="translate(54,170)"/>
<path d="M0 0 C1.5 1.375 1.5 1.375 3 3 C3 3.66 3 4.32 3 5 C0.69 5 -1.62 5 -4 5 C-3 2 -3 2 0 0 Z " fill="#F59639" transform="translate(36,171)"/>
<path d="M0 0 C0.66 0.33 1.32 0.66 2 1 C2.19392201 6.52677733 1.7479503 10.75614911 0 16 C-0.33 16 -0.66 16 -1 16 C-0.67 10.72 -0.34 5.44 0 0 Z " fill="#EC674F" transform="translate(46,128)"/>
<path d="M0 0 C0.66 0 1.32 0 2 0 C2.25 7.625 2.25 7.625 0 11 C-0.19491452 9.54263913 -0.38069358 8.08405407 -0.5625 6.625 C-0.66691406 5.81289062 -0.77132813 5.00078125 -0.87890625 4.1640625 C-1 2 -1 2 0 0 Z " fill="#B93580" transform="translate(26,96)"/>
<path d="M0 0 C2.125 0.9375 2.125 0.9375 4 2 C4 2.99 4 3.98 4 5 C2.02 5.99 2.02 5.99 0 7 C0 6.34 0 5.68 0 5 C-0.66 5 -1.32 5 -2 5 C-1.67 4.34 -1.34 3.68 -1 3 C-1.33 2.34 -1.66 1.68 -2 1 C-1.34 0.67 -0.68 0.34 0 0 Z " fill="#C736A3" transform="translate(169,57)"/>
<path d="M0 0 C2 2 2 2 2.125 5.625 C2.08375 6.73875 2.0425 7.8525 2 9 C1.34 8.67 0.68 8.34 0 8 C0 7.34 0 6.68 0 6 C-0.99 6.33 -1.98 6.66 -3 7 C-3 6.34 -3 5.68 -3 5 C-2.34 5 -1.68 5 -1 5 C-0.67 3.35 -0.34 1.7 0 0 Z " fill="#A637B0" transform="translate(221,34)"/>
<path d="M0 0 C0.99 0.33 1.98 0.66 3 1 C4.1875 3.5625 4.1875 3.5625 5 6 C3.35 6 1.7 6 0 6 C0 4.02 0 2.04 0 0 Z " fill="#F9A43F" transform="translate(40,178)"/>
<path d="M0 0 C2.125 0.375 2.125 0.375 4 1 C1.03 3.475 1.03 3.475 -2 6 C-2 2 -2 2 0 0 Z " fill="#F4E6E8" transform="translate(180,178)"/>
<path d="M0 0 C2 2 2 2 2.125 5.125 C2.08375 6.07375 2.0425 7.0225 2 8 C0.68 8 -0.64 8 -2 8 C-1.33333333 5.33333333 -0.66666667 2.66666667 0 0 Z " fill="#EF7632" transform="translate(26,152)"/>
<path d="M0 0 C1.32 0.66 2.64 1.32 4 2 C3.01 2.66 2.02 3.32 1 4 C1.66 4 2.32 4 3 4 C2 7 2 7 0 8 C-0.66 6.35 -1.32 4.7 -2 3 C-1.34 3 -0.68 3 0 3 C0 2.01 0 1.02 0 0 Z " fill="#BA298D" transform="translate(166,58)"/>
<path d="M0 0 C1.98 0 3.96 0 6 0 C6 2.31 6 4.62 6 7 C5.34 6.34 4.68 5.68 4 5 C3.29875 4.505 2.5975 4.01 1.875 3.5 C1.25625 3.005 0.6375 2.51 0 2 C0 1.34 0 0.68 0 0 Z " fill="#A933A8" transform="translate(170,32)"/>
<path d="M0 0 C0.33 0.66 0.66 1.32 1 2 C-2.96 1.67 -6.92 1.34 -11 1 C-11 0.67 -11 0.34 -11 0 C-3.19354839 -1.35111663 -3.19354839 -1.35111663 0 0 Z " fill="#FDE5DD" transform="translate(158,179)"/>
<path d="M0 0 C1.32 0.66 2.64 1.32 4 2 C2.35 3.32 0.7 4.64 -1 6 C-1.33 5.01 -1.66 4.02 -2 3 C-1.34 2.01 -0.68 1.02 0 0 Z " fill="#F7E9F3" transform="translate(91,90)"/>
<path d="M0 0 C3.63 0 7.26 0 11 0 C8.80601826 2.19398174 8.02143183 2.6546935 5 3 C2.25 2.0625 2.25 2.0625 0 1 C0 0.67 0 0.34 0 0 Z " fill="#D24586" transform="translate(106,85)"/>
<path d="M0 0 C3.875 1.75 3.875 1.75 5 4 C4.34 4 3.68 4 3 4 C2.67 5.32 2.34 6.64 2 8 C1.67 7.34 1.34 6.68 1 6 C1.33 5.34 1.66 4.68 2 4 C1.34 3.67 0.68 3.34 0 3 C0 2.01 0 1.02 0 0 Z " fill="#B92A93" transform="translate(162,53)"/>
<path d="M0 0 C1.2065625 0.0309375 1.2065625 0.0309375 2.4375 0.0625 C0.7875 2.0425 -0.8625 4.0225 -2.5625 6.0625 C-3.2225 5.7325 -3.8825 5.4025 -4.5625 5.0625 C-3.43829114 0.08386076 -3.43829114 0.08386076 0 0 Z " fill="#F6EDF9" transform="translate(54.5625,51.9375)"/>
<path d="M0 0 C1.9375 0.6875 1.9375 0.6875 4 2 C4.75 4.625 4.75 4.625 5 7 C4.67 6.34 4.34 5.68 4 5 C1.47266765 4.34444881 1.47266765 4.34444881 -1 4 C-0.67 2.68 -0.34 1.36 0 0 Z " fill="#9E35C0" transform="translate(212,19)"/>
<path d="M0 0 C0.33 0 0.66 0 1 0 C1 2.64 1 5.28 1 8 C0.01 8 -0.98 8 -2 8 C-2 6.35 -2 4.7 -2 3 C-1.34 3 -0.68 3 0 3 C0 2.01 0 1.02 0 0 Z " fill="#DF3676" transform="translate(179,136)"/>
<path d="M0 0 C0.99 0.33 1.98 0.66 3 1 C3.6875 3.0625 3.6875 3.0625 4 5 C2.68 5.33 1.36 5.66 0 6 C0 4.02 0 2.04 0 0 Z " fill="#EE6446" transform="translate(72,130)"/>
<path d="M0 0 C0.33 0 0.66 0 1 0 C1 3.63 1 7.26 1 11 C0.67 10.01 0.34 9.02 0 8 C-0.66 8 -1.32 8 -2 8 C-1.34 5.36 -0.68 2.72 0 0 Z " fill="#C42C8D" transform="translate(167,67)"/>
<path d="M0 0 C1.80411967 2.75924185 2.0127245 3.88972103 1.625 7.25 C1.41875 8.1575 1.2125 9.065 1 10 C-1 6.25 -1 6.25 -1 4 C-1.66 3.67 -2.32 3.34 -3 3 C-2.01 2.67 -1.02 2.34 0 2 C0 1.34 0 0.68 0 0 Z " fill="#C832A4" transform="translate(195,60)"/>
<path d="M0 0 C0.66 0.33 1.32 0.66 2 1 C0.625 3 0.625 3 -1 5 C-1.66 5 -2.32 5 -3 5 C-3.33 5.66 -3.66 6.32 -4 7 C-4 6.01 -4 5.02 -4 4 C-4.66 3.67 -5.32 3.34 -6 3 C-4.03533587 1.93224776 -2.03144641 0.93446535 0 0 Z " fill="#FAE2EC" transform="translate(200,217)"/>
<path d="M0 0 C0.99 0.66 1.98 1.32 3 2 C1.35 3.32 -0.3 4.64 -2 6 C-2.33 4.35 -2.66 2.7 -3 1 C-2.01 0.67 -1.02 0.34 0 0 Z " fill="#D33B7F" transform="translate(211,205)"/>
<path d="M0 0 C0.66 0 1.32 0 2 0 C2 1.65 2 3.3 2 5 C0.35 5.33 -1.3 5.66 -3 6 C-2.01 4.02 -1.02 2.04 0 0 Z " fill="#F4E3F0" transform="translate(219,197)"/>
<path d="M0 0 C0.66 0.33 1.32 0.66 2 1 C2 2.32 2 3.64 2 5 C0.35 4.67 -1.3 4.34 -3 4 C-2.67 3.01 -2.34 2.02 -2 1 C-1.34 0.67 -0.68 0.34 0 0 Z " fill="#E6405E" transform="translate(182,187)"/>
<path d="M0 0 C1.5625 1.8125 1.5625 1.8125 3 4 C2.67 4.99 2.34 5.98 2 7 C1.01 6.67 0.02 6.34 -1 6 C-0.67 4.02 -0.34 2.04 0 0 Z " fill="#F7F1F7" transform="translate(186,50)"/>
<path d="M0 0 C0.66 0.66 1.32 1.32 2 2 C1.01 2.495 1.01 2.495 0 3 C-0.72693904 4.97888961 -1.39816251 6.97954558 -2 9 C-2.66 8.01 -3.32 7.02 -4 6 C-2.68 4.02 -1.36 2.04 0 0 Z " fill="#5F49C6" transform="translate(9,22)"/>
<path d="M0 0 C1.32 0.66 2.64 1.32 4 2 C3.01 2.495 3.01 2.495 2 3 C2 3.66 2 4.32 2 5 C0.68 4.34 -0.64 3.68 -2 3 C-1.34 2.01 -0.68 1.02 0 0 Z " fill="#F0E7F4" transform="translate(207,8)"/>
</svg>
